<?xml version="1.0" encoding="utf-8"?>
<!-- Generator: Adobe Illustrator 27.3.1, SVG Export Plug-In . SVG Version: 6.00 Build 0)  -->
<svg version="1.1" xmlns="http://www.w3.org/2000/svg" xmlns:xlink="http://www.w3.org/1999/xlink" x="0px" y="0px"
	viewBox="0 0 750 500" style="enable-background:new 0 0 750 500;" xml:space="preserve">
	<style type="text/css">
		.st0 {
			fill: #A7DCEA;
		}

		.st1 {
			display: none;
		}

		.st2 {
			display: inline;
		}

		.st3 {
			display: inline;
			clip-path: url(#SVGID_00000085971025264322052190000006422907596118324353_);
		}

		.st4 {
			fill: #095F8E;
		}

		.st5 {
			fill: #36CDDD;
		}

		.st6 {
			fill: #C8F2FC;
		}

		.st7 {
			clip-path: url(#SVGID_00000121971113356393707450000013889587311214701463_);
		}

		.st8 {
			fill: #FFB0A0;
		}

		.st9 {
			fill: #F99585;
		}

		.st10 {
			fill: #F7A192;
		}

		.st11 {
			fill: #ED867C;
		}

		.st12 {
			fill: #0E004D;
		}

		.st13 {
			fill: #201668;
		}

		.st14 {
			fill: #FFFFFF;
		}

		.st15 {
			clip-path: url(#SVGID_00000147217849146520448940000004391151358566533303_);
		}

		.st16 {
			fill: #05002D;
		}

		.st17 {
			fill: #DD857A;
		}

		.st18 {
			clip-path: url(#SVGID_00000092435102507534824230000012527987536611634843_);
		}

		.st19 {
			fill: #FFBBB0;
		}

		.st20 {
			fill: #752727;
		}

		.st21 {
			fill: #B23030;
		}

		.st22 {
			fill: #0CACC6;
		}

		.st23 {
			fill: #F0F6F7;
		}

		.st24 {
			fill: #7FCBDD;
		}

		.st25 {
			fill: #24B8D1;
		}

		.st26 {
			fill: #14B0C1;
		}

		.st27 {
			fill: #DAEDEF;
		}

		.st28 {
			fill: #1B876A;
		}

		.st29 {
			fill: #177A5E;
		}

		.st30 {
			clip-path: url(#SVGID_00000128486706976470081930000013861783520368456854_);
		}

		.st31 {
			clip-path: url(#SVGID_00000080187792170471647520000006125409019164489638_);
		}

		.st32 {
			fill: #269E82;
		}

		.st33 {
			fill: #1A9172;
		}

		.st34 {
			fill: #07003D;
		}

		.st35 {
			fill: #66657A;
		}

		.st36 {
			fill: #8C8C9B;
		}

		.st37 {
			fill: #FFC2B8;
		}

		.st38 {
			fill: #EBFCFF;
		}

		.st39 {
			fill: #0B8BB2;
		}

		.st40 {
			fill: #F9A395;
		}
	</style>
	<g id="BACKGROUND">
		<g>
			<rect class="st0" width="750" height="500" />
		</g>
	</g>
	<g id="OBJECTS">
		<g class="st1">
			<defs>
				<rect id="SVGID_1_" x="65.4" y="-1.8" width="750" height="500" />
			</defs>
			<clipPath id="SVGID_00000106829480802915649840000004672385176242278842_" class="st2">
				<use xlink:href="#SVGID_1_" style="overflow:visible;" />
			</clipPath>
			<g style="display:inline;clip-path:url(#SVGID_00000106829480802915649840000004672385176242278842_);">
				<g>
					<path class="st4" d="M613.4,546.1c0,0,29.9-80.6,67-101.9c37.2-21.3,60.2,2.4,83.9,12.7s50.6,5,50.6,5
					c-24.6,23.9-71.3,40.4-107.3,42.8C671.5,507.1,647,517.2,613.4,546.1z" />
				</g>
				<g>
					<g>
						<path class="st5" d="M607.9,558.3c-0.1,0-0.3,0-0.4-0.1c-0.5-0.2-0.6-0.8-0.4-1.3c20.9-39.2,63.9-84.1,116.4-81.7
						c51.1,2.3,80.4-9.5,80.6-9.7c0.5-0.2,1,0,1.2,0.5c0.2,0.5,0,1-0.5,1.2c-0.3,0.1-29.8,12.1-81.4,9.8
						c-51.7-2.3-94.1,42.1-114.7,80.7C608.5,558.2,608.2,558.3,607.9,558.3z" />
					</g>
					<g>
						<path class="st5" d="M774,486.1c-0.1,0-0.2,0-0.3-0.1l-12.8-10.6l10.6-13.4c0.2-0.2,0.4-0.2,0.7-0.1c0.2,0.2,0.2,0.5,0.1,0.7
						l-10.1,12.7l12.1,10c0.2,0.2,0.2,0.5,0.1,0.7C774.3,486,774.1,486.1,774,486.1z" />
					</g>
					<g>
						<path class="st5" d="M748.3,494.5c-0.4,0-1.4-1-9.6-8.9c-4.6-4.4-9.2-8.8-9.2-8.8l-0.3-0.3l0.3-0.3l22.6-22.4
						c0.2-0.2,0.5-0.2,0.7,0c0.2,0.2,0.2,0.5,0,0.7l-22.3,22.1c5.2,5,17.5,16.9,18,17.3l-0.3,0.4l0.2,0.4
						C748.4,494.5,748.3,494.5,748.3,494.5z" />
					</g>
					<g>
						<path class="st5" d="M716.1,498.8c-0.1,0-0.2,0-0.3-0.1l-18.6-19.8l34.4-34.3c0.2-0.2,0.5-0.2,0.7,0c0.2,0.2,0.2,0.5,0,0.7
						l-33.8,33.6l18,19.2c0.2,0.2,0.2,0.5,0,0.7C716.3,498.8,716.2,498.8,716.1,498.8z" />
					</g>
					<g>
						<path class="st5" d="M693.8,502.7c-0.1,0-0.2,0-0.3-0.1l-20.7-14.1l20.6-45.5c0.1-0.2,0.4-0.3,0.6-0.2c0.2,0.1,0.3,0.4,0.2,0.6
						L674,488.2l20.1,13.6c0.2,0.1,0.3,0.4,0.1,0.6C694.1,502.6,693.9,502.7,693.8,502.7z" />
					</g>
					<g>
						<path class="st5" d="M672.3,509.8c0,0-0.1,0-0.1,0l-20.9-6.5l7.2-34c0.1-0.2,0.3-0.4,0.5-0.4c0.2,0.1,0.4,0.3,0.4,0.5l-7,33.1
						l20.1,6.2c0.2,0.1,0.4,0.3,0.3,0.6C672.7,509.7,672.5,509.8,672.3,509.8z" />
					</g>
					<g>
						<path class="st5" d="M649.9,517.4C649.9,517.4,649.9,517.4,649.9,517.4l-12-1.5l1-18.5c0-0.3,0.2-0.5,0.5-0.4
						c0.3,0,0.5,0.2,0.4,0.5l-1,17.6l11.1,1.4c0.3,0,0.4,0.3,0.4,0.5C650.3,517.2,650.1,517.4,649.9,517.4z" />
					</g>
				</g>
			</g>
			<g style="display:inline;clip-path:url(#SVGID_00000106829480802915649840000004672385176242278842_);">
				<g>
					<path class="st6" d="M631.3,506.5c0,0,5.1-126.3,146.3-105C701.5,454.4,662.7,459.2,631.3,506.5z" />
				</g>
				<g>
					<g>
						<path class="st5" d="M631.3,507.4c-0.1,0-0.1,0-0.2,0c-0.5-0.1-0.8-0.6-0.7-1.1c0.1-0.2,5.2-22.4,24.6-46.2
						c17.8-21.9,51.7-49.7,111.8-57.7c0.5-0.1,0.9,0.3,1,0.8c0.1,0.5-0.3,0.9-0.8,1c-59.5,7.9-93.1,35.4-110.7,57
						c-19.1,23.4-24.2,45.2-24.2,45.4C632,507.1,631.7,507.4,631.3,507.4z" />
					</g>
					<g>
						<path class="st5" d="M751.9,416.7c0,0-0.1,0-0.1,0l-19-6.1l9.2-10.3c0.2-0.2,0.4-0.2,0.6,0c0.2,0.2,0.2,0.4,0,0.6l-8.3,9.3
						l17.7,5.6c0.2,0.1,0.4,0.3,0.3,0.6C752.3,416.6,752.1,416.7,751.9,416.7z" />
					</g>
					<g>
						<path class="st5" d="M732.9,430c-0.1,0-0.1,0-0.2,0l-24.5-10l11.4-16.9c0.1-0.2,0.4-0.3,0.6-0.1c0.2,0.1,0.3,0.4,0.1,0.6
						l-10.8,16l23.5,9.6c0.2,0.1,0.3,0.3,0.2,0.6C733.2,429.9,733,430,732.9,430z" />
					</g>
					<g>
						<path class="st5" d="M708.8,442.5c-0.1,0-0.1,0-0.2,0l-22.5-9.9l8-21c0.1-0.2,0.3-0.3,0.6-0.3c0.2,0.1,0.3,0.3,0.3,0.6
						l-7.7,20.2l21.8,9.6c0.2,0.1,0.3,0.4,0.2,0.6C709.1,442.4,709,442.5,708.8,442.5z" />
					</g>
					<g>
						<path class="st5" d="M686.1,454.7c-0.1,0-0.1,0-0.2,0l-18.2-7.2l2.1-21c0-0.2,0.3-0.4,0.5-0.4c0.2,0,0.4,0.2,0.4,0.5l-2.1,20.4
						l17.6,6.9c0.2,0.1,0.3,0.3,0.2,0.6C686.4,454.6,686.2,454.7,686.1,454.7z" />
					</g>
					<g>
						<path class="st5" d="M666.6,465.7C666.5,465.7,666.5,465.7,666.6,465.7l-13.1-2.4l0.1-18.3c0-0.2,0.2-0.4,0.4-0.4c0,0,0,0,0,0
						c0.2,0,0.4,0.2,0.4,0.4l-0.1,17.6l12.3,2.2c0.2,0,0.4,0.3,0.4,0.5C667,465.5,666.8,465.7,666.6,465.7z" />
					</g>
					<g>
						<path class="st5" d="M642.1,480.4l-0.2-13.9c0-0.2,0.2-0.4,0.4-0.4c0,0,0,0,0,0c0.2,0,0.4,0.2,0.4,0.4l0.1,13l10.1-1.1
						c0.3,0,0.5,0.1,0.5,0.4c0,0.2-0.1,0.5-0.4,0.5L642.1,480.4z" />
					</g>
				</g>
			</g>
			<g style="display:inline;clip-path:url(#SVGID_00000106829480802915649840000004672385176242278842_);">
				<g>
					<path class="st4" d="M267.4,546.1c0,0-29.9-80.6-67-101.9c-37.2-21.3-60.2,2.4-83.9,12.7s-50.6,5-50.6,5
					c24.6,23.9,71.3,40.4,107.3,42.8C209.2,507.1,233.8,517.2,267.4,546.1z" />
				</g>
				<g>
					<g>
						<path class="st5" d="M272.9,558.3c-0.3,0-0.7-0.2-0.8-0.5c-20.6-38.7-63-83-114.7-80.7c-51.6,2.3-81.1-9.7-81.4-9.8
						c-0.5-0.2-0.7-0.7-0.5-1.2c0.2-0.5,0.7-0.7,1.2-0.5c0.3,0.1,29.5,11.9,80.6,9.7c52.5-2.3,95.5,42.6,116.4,81.7
						c0.2,0.5,0.1,1-0.4,1.3C273.2,558.3,273,558.3,272.9,558.3z" />
					</g>
					<g>
						<path class="st5" d="M106.8,486.1c-0.1,0-0.3-0.1-0.4-0.2c-0.2-0.2-0.1-0.5,0.1-0.7l12.1-10l-10.1-12.7
						c-0.2-0.2-0.1-0.5,0.1-0.7c0.2-0.2,0.5-0.1,0.6,0.1l10.6,13.4L107.1,486C107,486,106.9,486.1,106.8,486.1z" />
					</g>
					<g>
						<path class="st5"
							d="M132.5,494.5c-0.1,0-0.1,0-0.1,0l0.5-0.8l-0.3,0.4l-0.3-0.4c0.5-0.4,12.9-12.3,18-17.3L128,454.3
						c-0.2-0.2-0.2-0.5,0-0.7c0.2-0.2,0.5-0.2,0.7,0l23,22.7l-0.3,0.3c0,0-4.6,4.4-9.2,8.8C133.9,493.5,132.8,494.5,132.5,494.5z" />
					</g>
					<g>
						<path class="st5" d="M164.7,498.8c-0.1,0-0.2,0-0.3-0.1c-0.2-0.2-0.2-0.5,0-0.7l18-19.2l-33.8-33.6c-0.2-0.2-0.2-0.5,0-0.7
						c0.2-0.2,0.5-0.2,0.7,0l34.4,34.3L165,498.6C164.9,498.7,164.8,498.8,164.7,498.8z" />
					</g>
					<g>
						<path class="st5" d="M187,502.7c-0.1,0-0.3-0.1-0.4-0.2c-0.1-0.2-0.1-0.5,0.1-0.6l20.1-13.6l-20.3-44.8c-0.1-0.2,0-0.5,0.2-0.6
						c0.2-0.1,0.5,0,0.6,0.2l20.6,45.5l-20.7,14.1C187.1,502.7,187.1,502.7,187,502.7z" />
					</g>
					<g>
						<path class="st5" d="M208.4,509.8c-0.2,0-0.4-0.1-0.4-0.3c-0.1-0.2,0.1-0.5,0.3-0.6l20.1-6.2l-7-33.1c-0.1-0.2,0.1-0.5,0.4-0.5
						c0.3-0.1,0.5,0.1,0.5,0.4l7.2,34l-20.9,6.5C208.5,509.8,208.5,509.8,208.4,509.8z" />
					</g>
					<g>
						<path class="st5" d="M230.9,517.4c-0.2,0-0.4-0.2-0.5-0.4c0-0.3,0.1-0.5,0.4-0.5l11.1-1.4l-1-17.6c0-0.3,0.2-0.5,0.4-0.5
						c0.3,0,0.5,0.2,0.5,0.4l1,18.5L230.9,517.4C230.9,517.4,230.9,517.4,230.9,517.4z" />
					</g>
				</g>
			</g>
			<g style="display:inline;clip-path:url(#SVGID_00000106829480802915649840000004672385176242278842_);">
				<g>
					<path class="st6" d="M249.5,506.5c0,0-5.1-126.3-146.3-105C179.3,454.4,218.1,459.2,249.5,506.5z" />
				</g>
				<g>
					<g>
						<path class="st5" d="M249.5,507.4c-0.4,0-0.8-0.3-0.9-0.7c0-0.2-5.2-22.1-24.3-45.5c-17.6-21.6-51.1-49-110.6-57
						c-0.5-0.1-0.8-0.5-0.8-1c0.1-0.5,0.5-0.8,1-0.8c60.1,8,94,35.8,111.8,57.7c19.3,23.7,24.5,45.9,24.6,46.2
						c0.1,0.5-0.2,0.9-0.7,1.1C249.6,507.4,249.6,507.4,249.5,507.4z" />
					</g>
					<g>
						<path class="st5" d="M128.8,416.7c-0.2,0-0.4-0.1-0.4-0.3c-0.1-0.2,0.1-0.5,0.3-0.6l17.7-5.6l-8.3-9.3c-0.2-0.2-0.1-0.5,0-0.6
						c0.2-0.2,0.5-0.1,0.6,0l9.2,10.3l-19,6.1C128.9,416.7,128.9,416.7,128.8,416.7z" />
					</g>
					<g>
						<path class="st5" d="M147.9,430c-0.2,0-0.3-0.1-0.4-0.3c-0.1-0.2,0-0.5,0.2-0.6l23.5-9.6l-10.8-16c-0.1-0.2-0.1-0.5,0.1-0.6
						c0.2-0.1,0.5-0.1,0.6,0.1l11.4,16.9l-24.5,10C148,430,148,430,147.9,430z" />
					</g>
					<g>
						<path class="st5" d="M171.9,442.5c-0.2,0-0.3-0.1-0.4-0.3c-0.1-0.2,0-0.5,0.2-0.6l21.8-9.6l-7.7-20.2c-0.1-0.2,0-0.5,0.3-0.6
						c0.2-0.1,0.5,0,0.6,0.3l8,21l-22.5,9.9C172.1,442.5,172,442.5,171.9,442.5z" />
					</g>
					<g>
						<path class="st5" d="M194.7,454.7c-0.2,0-0.3-0.1-0.4-0.3c-0.1-0.2,0-0.5,0.2-0.6l17.6-6.9l-2.1-20.4c0-0.2,0.2-0.5,0.4-0.5
						c0.2,0,0.5,0.2,0.5,0.4l2.1,21l-18.2,7.2C194.8,454.7,194.7,454.7,194.7,454.7z" />
					</g>
					<g>
						<path class="st5" d="M214.2,465.7c-0.2,0-0.4-0.1-0.4-0.4c0-0.2,0.1-0.5,0.4-0.5l12.3-2.2l-0.1-17.6c0-0.2,0.2-0.4,0.4-0.4
						c0,0,0,0,0,0c0.2,0,0.4,0.2,0.4,0.4l0.1,18.3L214.2,465.7C214.2,465.7,214.2,465.7,214.2,465.7z" />
					</g>
					<g>
						<path class="st5" d="M238.7,480.4l-11-1.2c-0.2,0-0.4-0.2-0.4-0.5c0-0.2,0.2-0.4,0.5-0.4l10.1,1.1l0.1-13
						c0-0.2,0.2-0.4,0.4-0.4c0.2,0,0.4,0.2,0.4,0.4L238.7,480.4z" />
					</g>
				</g>
			</g>
		</g>
		<g>
			<defs>
				<rect id="SVGID_00000170966785479738198670000013465506420913096378_" x="65.4" y="-1.8" width="684.6"
					height="500" />
			</defs>
			<clipPath id="SVGID_00000053534973309683797570000004211095380599601332_">
				<use xlink:href="#SVGID_00000170966785479738198670000013465506420913096378_"
					style="overflow:visible;" />
			</clipPath>
			<g style="clip-path:url(#SVGID_00000053534973309683797570000004211095380599601332_);">
				<g>
					<g>
						<path class="st8" d="M318.5,216.7c0,0,0.4,14.4,1.5,21c1.1,6.6,6.9,10.3,6.9,10.3s-12.5,12.5-23.7,14.1
						c-11.1,1.6-23.6-15.1-23.6-15.1s5.8-1.4,6.6-8.8c0.8-7.4,0.2-19.9,0.2-19.9L318.5,216.7z" />
					</g>
					<g>
						<path class="st9" d="M318.9,226.6c-0.3-5.2-0.4-9.9-0.4-9.9l-32,1.5c0,0,0.6,12.2-0.2,19.6c7.7-6.9,15,0,26-5.4
						C314.3,231.5,318.1,228.4,318.9,226.6z" />
					</g>
					<g>
						<g>
							<g>
								<path class="st8" d="M275.3,166.1c0,0,0.8,18.1-0.5,26.8s5.4,25.3,8.3,28.3c2.9,2.9,12.1,6.7,18,8.4
								c5.9,1.7,15.8-5.4,19.4-8.6c3.6-3.2,7.5-22.7,7.8-26.4c0.3-3.8-3.4-20.1-2.7-29.6s-18.8-11.8-29.2-10.2
								C285.9,156.4,275.1,162.6,275.3,166.1z" />
							</g>
							<g>
								<path class="st10" d="M309.8,191.7c0,0-1.3-1.4-1-3.9c0.4-2.5,1.1-4.6,5.4-4c4.4,0.6,7,2.5,6.2,9.2c-0.9-1.1-3.5-1.5-5.3-1.7
								C313.3,191,309.8,191.7,309.8,191.7z" />
							</g>
							<g>
								<path class="st10" d="M294.4,191.7c0,0,1.3-1.4,1-3.9c-0.4-2.5-1.1-4.6-5.4-4c-4.4,0.6-7,2.5-6.2,9.2
								c0.9-1.1,3.5-1.5,5.3-1.7C290.9,191,294.4,191.7,294.4,191.7z" />
							</g>
							<g>
								<path class="st10"
									d="M287.6,221.2c-2.9-2.9-10.5-19.7-8.3-28.3c3.8-14.7,1.9-20.4,1.9-20.4c-0.1-3.5,9.2-16.1,19.7-17.7
								c1.4-0.2,2.9-0.4,4.5-0.4c-3.3-0.1-6.5,0-9.1,0.4c-10.5,1.6-21.2,7.8-21,11.3c0,0,0.8,18.1-0.5,26.8
								c-1.3,8.7,5.4,25.3,8.3,28.3c2.9,2.9,12.1,6.7,18,8.4c1.3,0.4,2.9,0.3,4.5,0C299.6,227.8,290.5,224.1,287.6,221.2z" />
							</g>
							<g>
								<path class="st10" d="M328.6,192.9c0,0-1.9-4.7-4-9.2c-2.1-4.5-3.3-9.6-3.6-11.2c-9.3-0.3-14.8-1.3-23.5,3.7
								c-8.7,5-15.2-0.8-15.2-0.8c0,9.8-6.7,18.5-6.7,18.5s-3.6-12-3.1-17.1c0.5-5.1,2.8-19.2,12-21.9c9.1-2.7,24.7-2.8,30.7,0
								c5.9,2.8,12,9.2,12.1,12.7C327.3,171.1,328.6,192.9,328.6,192.9z" />
							</g>
							<g>
								<g>
									<path class="st10" d="M275.6,194c0-0.2-1.5-4.8-4.3-5c-2.8-0.2-4.3,4.2-3,9.3c1.3,5.2,4.5,9.1,6.3,9.2
									c1.7,0.1,2.7-3.8,2.7-3.8L275.6,194z" />
								</g>
								<g>
									<path class="st11" d="M272.1,204.5c0,0-0.2-0.8-1.2-1.9c-1-1.1-1.3-4.7-1.3-6.8c0-2.1,0.9-4.1,1.5-4.6
									c0.6-0.5,2.9,2.9,3.1,3.9c0.2,1,0.9,2.8,0,4.4c-0.9,1.6-0.5,2.1,0.2,2.7c0.7,0.6,0.2,1.6-0.2,2.1c-0.4,0.5-0.9-0.4-1.5-1.5
									c-0.6-1,0.5-3.6,0.7-4c0.3-0.4-1.8-1.4-2.5,2c-0.1-1.8,1.2-4.8,2.9-3c-0.5-3.2-1.5-4.7-2.1-5.3c-0.7-0.7-1.2,1.5-1.4,3.6
									c-0.3,2.1-0.1,4.9,0.6,5.6C271.4,202.4,271.9,203.6,272.1,204.5z" />
								</g>
							</g>
							<g>
								<path class="st8" d="M327.7,194c0-0.2,1.5-4.8,4.3-5c2.8-0.2,4.3,4.2,3,9.3c-1.3,5.2-4.5,9.1-6.3,9.2
								c-1.7,0.1-2.7-3.8-2.7-3.8L327.7,194z" />
							</g>
							<g>
								<path class="st9" d="M331.4,204.5c0,0,0.2-0.8,1.2-1.9c1-1.1,1.3-4.7,1.3-6.8c0-2.1-0.9-4.1-1.5-4.6
								c-0.6-0.5-2.9,2.9-3.1,3.9c-0.2,1-0.9,2.8,0,4.4c0.9,1.6,0.5,2.1-0.2,2.7c-0.7,0.6-0.2,1.6,0.2,2.1c0.4,0.5,0.9-0.4,1.5-1.5
								c0.6-1-0.5-3.6-0.7-4c-0.3-0.4,1.8-1.4,2.5,2c0.1-1.8-1.2-4.8-2.9-3c0.5-3.2,1.5-4.7,2.1-5.3c0.7-0.7,1.2,1.5,1.4,3.6
								c0.3,2.1,0.1,4.9-0.6,5.6C332,202.4,331.6,203.6,331.4,204.5z" />
							</g>
							<g>
								<g>
									<path class="st12"
										d="M279.2,168.9c0,0.4-1.1,21.4-2.7,30.7c-0.6-7-3.5-10.1-5.9-10.4c-0.8-4-5.4-25.6,4.9-31.9
									c-0.9-7.2,13.9-13.9,29.5-13.3c15.5,0.7,24.3,9.9,26,21.7c1.7,11.8,1,23.4,1,23.4s-3.1,1.8-4.7,11.3
									c1.3-11.5-2.3-17.1-3.3-20.8c-0.9-3.8-2.4-11.3-2.4-11.3c-2-2.8-14.3-5-23.7-0.7C288.5,171.8,279.2,168.9,279.2,168.9z" />
								</g>
								<g>
									<path class="st12" d="M278,165.5c0,0,2.2,5.1,10.8,4.6c8.6-0.5,19.2-6.3,27.8,0c-5-1.5-10.9-2.1-21.7,2.2
									c-10.8,4.4-16.6-0.9-17.7-4.2C276.1,164.8,278,165.5,278,165.5z" />
								</g>
								<g>
									<path class="st13" d="M325.4,171.2c0,0-10.8-8.4-22.1-5c-11.3,3.4-19.3,8.2-26.2-0.6c5.6,3.9,13.6,3.4,20.6-0.7
									C304.6,160.9,319.7,159.2,325.4,171.2z" />
								</g>
								<g>
									<path class="st13" d="M276,161.4c0,0,5.4,6.5,11.5,5.6c6.1-0.9,10.4-5.7,17.4-5.6c-2.2-0.9-9.9-0.2-14.2,2.4
									C286.4,166.3,279,164.2,276,161.4z" />
								</g>
							</g>
						</g>
						<g>
							<path class="st12" d="M309.9,184.7c0,0,4.4-1.3,7.4,0.7c3,1.9,3.3,2.8,3.7,2.3c0.4-0.6-1.7-4.4-5.6-5.5
							c-3.8-1.1-6.1,0.1-6.7,1C308.2,184.1,308.8,184.8,309.9,184.7z" />
						</g>
						<g>
							<path class="st12" d="M294.2,184.7c0,0-4.4-1.3-7.4,0.7c-3,1.9-3.3,2.8-3.7,2.3c-0.4-0.6,1.7-4.4,5.6-5.5s6.1,0.1,6.7,1
							C296,184.1,295.3,184.8,294.2,184.7z" />
						</g>
						<g>
							<g>
								<g>
									<path class="st14" d="M309.8,191.7c0,0,1.7-2.9,5.4-2.5c3.7,0.4,4.9,3.3,4.9,3.3s-2.6,0.1-4.9,0
									C312.8,192.4,309.8,191.7,309.8,191.7z" />
								</g>
								<g>
									<defs>
										<path id="SVGID_00000060019797791830765720000002701167743529789631_" d="M309.8,191.7c0,0,1.7-2.9,5.4-2.5
										c3.7,0.4,4.9,3.3,4.9,3.3s-2.6,0.1-4.9,0C312.8,192.4,309.8,191.7,309.8,191.7z" />
									</defs>
									<clipPath id="SVGID_00000139285198560452090280000002310148354313794748_">
										<use xlink:href="#SVGID_00000060019797791830765720000002701167743529789631_"
											style="overflow:visible;" />
									</clipPath>
									<g
										style="clip-path:url(#SVGID_00000139285198560452090280000002310148354313794748_);">
										<g>
											<path class="st12" d="M317.3,190.7c0.1,1.2-0.8,2.2-2,2.3c-1.2,0.1-2.2-0.8-2.3-2c-0.1-1.2,0.8-2.2,2-2.3
											C316.2,188.6,317.2,189.5,317.3,190.7z" />
										</g>
										<g>
											<g>
												<path class="st16" d="M316.2,190.7c0,0.6-0.4,1.1-1,1.1c-0.6,0-1.1-0.4-1.1-1c0-0.6,0.4-1.1,1-1.1
												C315.7,189.7,316.2,190.2,316.2,190.7z" />
											</g>
											<g>
												<path class="st14" d="M316.5,190.3c0,0.2-0.2,0.5-0.4,0.5c-0.2,0-0.5-0.2-0.5-0.4c0-0.2,0.2-0.5,0.4-0.5
												C316.3,189.8,316.5,190,316.5,190.3z" />
											</g>
										</g>
									</g>
								</g>
							</g>
							<g>
								<path class="st12" d="M309.8,191.7c0.5-1,1.3-1.8,2.3-2.4c1-0.5,2.3-0.7,3.4-0.5c1.1,0.2,2.2,0.6,3.1,1.3
								c0.5,0.3,0.8,0.8,1.1,1.3c0.3,0.5,0.5,1,0.7,1.5c-0.6-0.9-1.3-1.7-2.2-2.2c-0.9-0.5-1.9-0.8-2.9-1c-1-0.2-2-0.1-3,0.2
								C311.4,190.3,310.5,190.9,309.8,191.7z" />
							</g>
							<g>
								<path class="st17" d="M310.2,190.6c0.4-0.9,1.2-1.7,2.1-2.2c0.9-0.5,2-0.6,3-0.6c1,0.1,2.1,0.4,2.9,1
								c0.8,0.6,1.5,1.4,1.8,2.4c-0.4-0.9-1.1-1.6-2-2.2c-0.8-0.5-1.8-0.8-2.8-0.9c-1-0.1-2,0.1-2.8,0.5
								C311.6,189.1,310.8,189.8,310.2,190.6z" />
							</g>
						</g>
						<g>
							<g>
								<g>
									<path class="st14" d="M294.4,191.7c0,0-1.7-2.9-5.4-2.5s-4.9,3.3-4.9,3.3s2.6,0.1,4.9,0
									C291.4,192.4,294.4,191.7,294.4,191.7z" />
								</g>
								<g>
									<defs>
										<path id="SVGID_00000157289669512428960070000010801677330480383381_" d="M294.4,191.7c0,0-1.7-2.9-5.4-2.5
										s-4.9,3.3-4.9,3.3s2.6,0.1,4.9,0C291.4,192.4,294.4,191.7,294.4,191.7z" />
									</defs>
									<clipPath id="SVGID_00000084529140442679633160000014945435836814250665_">
										<use xlink:href="#SVGID_00000157289669512428960070000010801677330480383381_"
											style="overflow:visible;" />
									</clipPath>
									<g
										style="clip-path:url(#SVGID_00000084529140442679633160000014945435836814250665_);">
										<g>
											<path class="st12" d="M286.9,190.7c-0.1,1.2,0.8,2.2,2,2.3c1.2,0.1,2.2-0.8,2.3-2c0.1-1.2-0.8-2.2-2-2.3
											C288,188.6,287,189.5,286.9,190.7z" />
										</g>
										<g>
											<g>
												<path class="st16" d="M288,190.7c0,0.6,0.4,1.1,1,1.1c0.6,0,1.1-0.4,1.1-1c0-0.6-0.4-1.1-1-1.1
												C288.5,189.7,288,190.2,288,190.7z" />
											</g>
											<g>
												<path class="st14" d="M287.7,190.3c0,0.2,0.2,0.5,0.4,0.5c0.2,0,0.5-0.2,0.5-0.4c0-0.2-0.2-0.5-0.4-0.5
												C287.9,189.8,287.7,190,287.7,190.3z" />
											</g>
										</g>
									</g>
								</g>
							</g>
							<g>
								<path class="st12" d="M294.4,191.7c-0.5-1-1.3-1.8-2.3-2.4c-1-0.5-2.3-0.7-3.4-0.5c-1.1,0.2-2.2,0.6-3.1,1.3
								c-0.5,0.3-0.8,0.8-1.1,1.3c-0.3,0.5-0.5,1-0.7,1.5c0.6-0.9,1.3-1.7,2.2-2.2c0.9-0.5,1.9-0.8,2.9-1c1-0.2,2-0.1,3,0.2
								C292.8,190.3,293.7,190.9,294.4,191.7z" />
							</g>
							<g>
								<path class="st17" d="M294,190.6c-0.4-0.9-1.2-1.7-2.1-2.2c-0.9-0.5-2-0.6-3-0.6c-1,0.1-2.1,0.4-2.9,1
								c-0.8,0.6-1.5,1.4-1.8,2.4c0.4-0.9,1.1-1.6,2-2.2c0.8-0.5,1.8-0.8,2.8-0.9c1-0.1,2,0.1,2.8,0.5
								C292.7,189.1,293.4,189.8,294,190.6z" />
							</g>
						</g>
						<g>
							<path class="st10" d="M298.2,217.4c0,0,3.3,3.1,8,0C304.3,221.4,299.7,220.7,298.2,217.4z" />
						</g>
						<g>
							<path class="st9" d="M296.7,185.3c0,0,3.1,3.8,3.3,6.2s-2.3,9.6-2.5,11.2c-0.1,1.6,4,3.3,7.7,2.9c-5.8,1.1-7.4,0.9-9-1.5
							s1.3-4.6,3-11.8C299.3,190.8,296.7,185.3,296.7,185.3z" />
						</g>
						<g>
							<path class="st19"
								d="M305.2,201.7c0,1.1-1.5,1.9-3.4,1.9s-3.4-0.9-3.4-1.9c0-1.1,1.5-1.3,3.4-1.3S305.2,200.6,305.2,201.7z" />
						</g>
						<g>
							<g>
								<path class="st20"
									d="M294.6,210.1c0,0,10.1,1.3,15.6,0C308.2,217.1,298.2,220.5,294.6,210.1z" />
							</g>
							<g>
								<path class="st21"
									d="M307.2,214.7c-5-2.4-8.3-0.7-9.6,0.2C300.5,217.6,304.4,217,307.2,214.7z" />
							</g>
							<g>
								<path class="st14" d="M310,210.1c-4.9,1.1-13.3,0.2-15.1,0c0.2,0.3,0.8,0.9,1.8,1.2c1.4,0.4,7.7,0.8,10.1,0.3
								C308.7,211.3,309.7,210.5,310,210.1z" />
							</g>
						</g>
					</g>
				</g>
				<g>
					<g>
						<path class="st12" d="M319,199.1c-2.1,0-4.8-0.1-8.5-0.4c-3.1-0.2-3.6-2.3-3.7-4.3c-0.1-1.6,0-3.2,0-4.2c0-0.4,0-0.7,0-0.9
						c0-0.9,0.2-1.6,0.8-2.1c0.8-0.8,2-0.9,2.1-0.9l0,0c0.5,0,13.1,0.4,15.5,1.1c0.4,0.2,0.7,0.6,0.8,1.2c0.7,2.4,0.2,8-0.6,9.3
						C325.1,198.3,324.7,199.1,319,199.1z M309.6,187.2c-0.1,0-0.9,0-1.5,0.6c-0.4,0.4-0.5,0.9-0.5,1.5c0,0.2,0,0.5,0,0.9
						c0,1,0,2.5,0,4.1c0.1,2.1,0.6,3.4,2.9,3.6c12.7,0.9,14-0.2,14.1-0.4c0.7-1.2,1.1-6.5,0.5-8.7c-0.2-0.6-0.3-0.7-0.4-0.7
						C322.6,187.5,310,187.2,309.6,187.2z" />
					</g>
					<g>
						<path class="st12" d="M285.8,199.1c-5.7,0-6.2-0.8-6.4-1.1c-0.8-1.3-1.3-6.9-0.6-9.3c0.2-0.6,0.4-1,0.8-1.2
						c2.4-0.7,15-1.1,15.6-1.1l0,0c0.1,0,1.3,0,2.1,0.9c0.5,0.5,0.8,1.2,0.8,2.1c0,0.2,0,0.5,0,0.9c0,1,0,2.5,0,4.2
						c-0.1,2-0.6,4.1-3.7,4.3C290.6,199,287.8,199.1,285.8,199.1z M279.8,188.2c0,0-0.1,0.1-0.3,0.7c-0.6,2.1-0.2,7.5,0.5,8.7
						c0.1,0.2,1.5,1.3,14.1,0.4c2.4-0.2,2.9-1.4,2.9-3.6c0.1-1.6,0-3.1,0-4.1c0-0.4,0-0.7,0-0.9c0-0.7-0.2-1.2-0.5-1.5
						c-0.6-0.6-1.4-0.6-1.5-0.6C294.7,187.2,282.1,187.5,279.8,188.2C279.8,188.2,279.8,188.2,279.8,188.2z" />
					</g>
					<g>
						<path class="st12" d="M307,189c0,0-5.1-2.3-9.3,0l-0.4-0.7c4.6-2.4,9.8-0.1,10,0L307,189z" />
					</g>
				</g>
				<g>
					<g>
						<g>
							<g>
								<path class="st22" d="M284.6,243.9l-6.7,10c0,0,8,79.9,28.3,89.3c21.3-49.9,24.6-92,24.6-92l-7.3-5.4
								c0,0-10.9,14.6-20.9,13.3C292.7,257.8,284.6,243.9,284.6,243.9z" />
							</g>
							<g>
								<path class="st12" d="M301.2,259.2l-9.1,6.9c0,0,5.1,10.6,5.4,10.8c0.3,0.2-9.9,46.8-9.9,46.8l13.5,10.9l12-13.5l-6.6-44.8
								l6.6-11.7L301.2,259.2z" />
							</g>
							<g>
								<path class="st23" d="M233,273.7c0,0,34.3-24.9,50.9-29.8c-1.6,30.6,19,80.4,19,80.4l2.8,203.7c0,0-32.8,3.2-58,0
								c-25.2-3.2-17.2-31.6-17.2-31.6s11.3-97,10.2-130.8C239.7,331.9,233,273.7,233,273.7z" />
							</g>
							<g>
								<path class="st14" d="M233,273.7c0,0,34.3-24.9,50.9-29.8c-1.6,30.6,19,80.4,19,80.4l2.8,203.7c0,0-32.8,3.2-58,0l1.5-35.3
								c0,0,13.7-87.4,12.6-121.2S233,273.7,233,273.7z" />
							</g>
							<g>
								<path class="st23" d="M373.7,273.7c0,0-34.3-24.9-50.9-29.8c1.6,30.6-22.3,80.4-22.3,80.4l2.8,203.7c0,0,30.4,3.2,55.6,0
								c25.2-3.2,17.2-31.6,17.2-31.6s-11.3-97-10.2-130.8C366.9,331.9,373.7,273.7,373.7,273.7z" />
							</g>
							<g>
								<path class="st14" d="M373.7,273.7c0,0-34.3-24.9-50.9-29.8c1.6,30.6-22.3,80.4-22.3,80.4l2.8,203.7c0,0,30.4,3.2,55.6,0
								l-4.8-48.7c0,0-4.3-75.1-3.2-108.8C351.9,336.8,373.7,273.7,373.7,273.7z" />
							</g>
						</g>
						<g>
							<path class="st24" d="M319.8,236.3c0,0-3.2,15-17.1,21.8c-6.6-1.9-16.6-17-16.3-21.8c-2.9,6-5.7,8.7-5.7,8.7
							s-0.5,16.3,9.4,25.8c5-4.6,12.6-10.6,12.6-10.6s9.3,8.6,10.8,12.7c9-11,12.5-28,12.5-28L319.8,236.3z" />
						</g>
						<g>
							<path class="st23" d="M322.4,240c0,0,8.4,5.2,10.2,8c1.8,2.8,5.6,15.4,6.3,27.1c-6,2-14,6.2-14,6.2l13,1.9
							c0,0-17.4,33.4-40.3,52.5c4.2-16.5,11.7-33,18.5-57.3C322.9,254,322.4,240,322.4,240z" />
						</g>
						<g>
							<path class="st23" d="M284.4,240c0,0-8.4,5.2-10.2,8c-1.8,2.8-5.6,15.4-6.3,27.1c6,2,14,6.2,14,6.2l-13,1.9
							c0,0,14,23.7,36.9,42.8c-4.2-16.5-8.3-23.2-15.1-47.6C283.8,254,284.4,240,284.4,240z" />
						</g>
					</g>
					<g>
						<g>
							<g>
								<path class="st8" d="M259,423.7c0,0,1.3,3.2,7.3,6c6,2.8,9.1,4.3,12.1,8.9c-11.1,3-26.7,8.3-26.7,8.3s-4.2-4.8-6.2-9.2
								C243.5,433.4,259,423.7,259,423.7z" />
							</g>
							<g>
								<path class="st25" d="M233,273.7c0,0-45,76-49.8,92.6c-4.8,16.6,62.2,75.5,62.2,75.5l16.7-18.4l-45.3-51.6l24.5-31.1
								C241.3,340.8,237.6,306.7,233,273.7z" />
							</g>
							<g>
								<path class="st26" d="M221.4,366.1l20-25.2c0,0-3.7-34.1-8.3-67.1c0,0-34.7,58.7-46.4,84.2
								C198.8,355.2,211.9,357.3,221.4,366.1z" />
							</g>
							<g>
								<path class="st26"
									d="M216.8,371.9c0,0-8.3-7.6-20.8-6.9C205.4,362.8,211.1,362.3,216.8,371.9z" />
							</g>
							<g>
								<path class="st23" d="M239.2,444.7c0,0,33.9-8.8,44.5-16.5c2.9,6.8,3.3,9.5,3.3,9.5s-27.9,13.7-46.6,13.7
								C239.8,448.9,239.2,444.7,239.2,444.7z" />
							</g>
						</g>
						<g>
							<path class="st14"
								d="M225.8,366L240,350c0,0,5.7-53.1-7-76.3c0,0-29.7,43.7-45.1,70.9c14.4,1.3,22.8,7,33.7,16.2L225.8,366z" />
						</g>
						<g>
							<path class="st23"
								d="M232.9,275.5c0,0,9.8,24.2,7.1,74.5C242.5,338.3,245.9,291,232.9,275.5z" />
						</g>
					</g>
					<g>
						<g>
							<g>
								<path class="st8" d="M347.5,423.7c0,0-1.3,3.2-7.3,6c-6,2.8-9.1,4.3-12.1,8.9c11.1,3,26.7,8.3,26.7,8.3s4.2-4.8,6.2-9.2
								C363,433.4,347.5,423.7,347.5,423.7z" />
							</g>
							<g>
								<path class="st25" d="M373.5,273.7c0,0,45,76,49.8,92.6c4.8,16.6-62.2,75.5-62.2,75.5l-16.7-18.4l45.3-51.6l-24.5-31.1
								C365.2,340.8,362.7,292,373.5,273.7z" />
							</g>
							<g>
								<path class="st26" d="M417.9,353.5c-13.3-27.3-44.3-79.8-44.3-79.8c-10.9,18.3-8.3,67.1-8.3,67.1l22,27.8
								C395.9,360.4,405.9,352,417.9,353.5z" />
							</g>
							<g>
								<path class="st26"
									d="M389.8,371.9c0,0,8.5-8.9,18.6-8.8C402.1,360.8,393.2,362.7,389.8,371.9z" />
							</g>
							<g>
								<path class="st23" d="M367.3,444.7c0,0-33.9-8.8-44.5-16.5c-2.9,6.8-3.3,9.5-3.3,9.5s27.9,13.7,46.6,13.7
								C366.8,448.9,367.3,444.7,367.3,444.7z" />
							</g>
						</g>
						<g>
							<path class="st14" d="M380.7,366L366.5,350c0,0-7-57.3,7-76.3c0,0,29.7,43.7,45.1,70.9c-14.4,1.3-22.8,7-33.7,16.2L380.7,366z
							" />
						</g>
						<g>
							<path class="st23"
								d="M373.6,275.5c0,0-9.8,24.2-7.1,74.5C364,338.3,360.6,291,373.6,275.5z" />
						</g>
					</g>
					<g>
						<path class="st27" d="M305.8,339.5c0,2.1-1.7,3.7-3.7,3.7c-2.1,0-3.7-1.7-3.7-3.7c0-2.1,1.7-3.7,3.7-3.7
						C304.1,335.8,305.8,337.4,305.8,339.5z" />
					</g>
					<g>
						<path class="st27" d="M305.8,375.8c0,2.1-1.7,3.7-3.7,3.7c-2.1,0-3.7-1.7-3.7-3.7c0-2.1,1.7-3.7,3.7-3.7
						C304.1,372.1,305.8,373.7,305.8,375.8z" />
					</g>
					<g>
						<path class="st27" d="M305.8,417.2c0,2.1-1.7,3.7-3.7,3.7c-2.1,0-3.7-1.7-3.7-3.7c0-2.1,1.7-3.7,3.7-3.7
						C304.1,413.5,305.8,415.2,305.8,417.2z" />
					</g>
					<g>
						<path class="st27" d="M305.8,456.8c0,2.1-1.7,3.7-3.7,3.7c-2.1,0-3.7-1.7-3.7-3.7s1.7-3.7,3.7-3.7
						C304.1,453.1,305.8,454.8,305.8,456.8z" />
					</g>
					<g>
						<path class="st27" d="M305.8,500.9c0,2.1-1.7,3.7-3.7,3.7c-2.1,0-3.7-1.7-3.7-3.7c0-2.1,1.7-3.7,3.7-3.7
						C304.1,497.1,305.8,498.8,305.8,500.9z" />
					</g>
				</g>
			</g>
			<g style="clip-path:url(#SVGID_00000053534973309683797570000004211095380599601332_);">
				<g>
					<polygon class="st28"
						points="389.5,456.8 384.8,526.1 447.6,529.5 451.6,497.1 458.7,529.5 520.7,529.5 513,453.3 				" />
				</g>
				<g>
					<path class="st29" d="M514.5,468.3l-1.5-14.9l-123.5,3.5l-2.2,32.8c29.8-20.3,80.7-7.9,116.3-16.5
					C507.4,471.6,511.2,470.7,514.5,468.3z" />
				</g>
				<g>
					<g>
						<g>
							<path class="st8" d="M465.7,216.7c0,0,0.4,14.4,1.5,21c1.1,6.6,6.9,10.3,6.9,10.3s-0.7,29.6-23.6,29.6
							c-25.3,0-23.6-30.6-23.6-30.6s5.8-1.4,6.6-8.8c0.8-7.4,0.2-19.9,0.2-19.9L465.7,216.7z" />
						</g>
						<g>
							<path class="st9" d="M466.1,226.6c-0.3-5.2-0.4-9.9-0.4-9.9l-32,1.5c0,0,0.6,12.2-0.2,19.6c7.7-6.9,15,0,26-5.4
							C461.4,231.5,465.3,228.4,466.1,226.6z" />
						</g>
						<g>
							<g>
								<g>
									<path class="st8" d="M474.9,194c0-0.2,1.5-4.8,4.3-5c2.8-0.2,4.3,4.2,3,9.3c-1.3,5.2-4.5,9.1-6.3,9.2
									c-1.7,0.1-2.7-3.8-2.7-3.8L474.9,194z" />
								</g>
								<g>
									<path class="st9" d="M478.6,204.5c0,0,0.2-0.8,1.2-1.9c1-1.1,1.3-4.7,1.3-6.8c0-2.1-0.9-4.1-1.5-4.6
									c-0.6-0.5-2.9,2.9-3.1,3.9c-0.2,1-0.9,2.8,0,4.4c0.8,1.6,0.5,2.1-0.2,2.7c-0.7,0.6-0.2,1.6,0.2,2.1c0.4,0.5,0.9-0.4,1.5-1.5
									c0.6-1-0.5-3.6-0.7-4c-0.3-0.4,1.8-1.4,2.5,2c0.1-1.8-1.2-4.8-2.9-3c0.5-3.2,1.5-4.7,2.1-5.3c0.7-0.7,1.2,1.5,1.4,3.6
									c0.3,2.1,0.1,4.9-0.6,5.6C479.2,202.4,478.8,203.6,478.6,204.5z" />
								</g>
								<g>
									<path class="st8" d="M422.4,166.1c0,0,1.9,17.6,0.5,26.3s4.3,25.8,7.2,28.8c2.9,2.9,12.1,6.7,18,8.4
									c5.9,1.7,15.8-5.4,19.4-8.6c3.6-3.2,7.5-22.7,7.8-26.4c0.3-3.8-3.4-20.1-2.7-29.6s-18.8-11.8-29.2-10.2
									C433,156.4,422.3,162.6,422.4,166.1z" />
								</g>
								<g>
									<path class="st10" d="M456.9,191.7c0,0-1.3-1.4-1-3.9c0.4-2.5,1.1-4.6,5.4-4c4.4,0.6,7,2.5,6.2,9.2
									c-0.9-1.1-3.5-1.5-5.3-1.7C460.5,191,456.9,191.7,456.9,191.7z" />
								</g>
								<g>
									<path class="st10" d="M441.6,191.7c0,0,1.3-1.4,1-3.9c-0.4-2.5-1.1-4.6-5.4-4c-4.4,0.6-7,2.5-6.2,9.2
									c0.9-1.1,3.5-1.5,5.3-1.7C438,191,441.6,191.7,441.6,191.7z" />
								</g>
								<g>
									<path class="st10" d="M434.8,221.2c-2.9-2.9-10.5-19.7-8.3-28.3c3.8-14.7,1.9-20.4,1.9-20.4c-0.1-3.5,9.2-16.1,19.7-17.7
									c1.4-0.2,2.9-0.4,4.5-0.4c-3.3-0.1-6.5,0-9.1,0.4c-10.5,1.6-21.2,7.8-21,11.3c0,0,2.1,17,0.8,25.8c-1.3,8.7,4,26.4,7,29.3
									c2.9,2.9,12.1,6.7,18,8.4c1.3,0.4,2.9,0.3,4.5,0C446.7,227.8,437.7,224.1,434.8,221.2z" />
								</g>
								<g>
									<g>
										<path class="st10" d="M422.8,194c0-0.2-1.5-4.8-4.3-5c-2.8-0.2-4.3,4.2-3,9.3c1.3,5.2,4.5,9.1,6.3,9.2
										c1.7,0.1,2.7-3.8,2.7-3.8L422.8,194z" />
									</g>
									<g>
										<path class="st11" d="M419.2,204.5c0,0-0.2-0.8-1.2-1.9c-1-1.1-1.3-4.7-1.3-6.8c0-2.1,0.9-4.1,1.5-4.6
										c0.6-0.5,2.9,2.9,3.1,3.9c0.2,1,0.9,2.8,0,4.4c-0.9,1.6-0.5,2.1,0.2,2.7c0.7,0.6,0.2,1.6-0.2,2.1c-0.4,0.5-0.9-0.4-1.5-1.5
										c-0.6-1,0.5-3.6,0.7-4c0.3-0.4-1.8-1.4-2.5,2c-0.1-1.8,1.2-4.8,2.9-3c-0.5-3.2-1.5-4.7-2.1-5.3c-0.7-0.7-1.2,1.5-1.4,3.6
										c-0.3,2.1-0.1,4.9,0.6,5.6S419,203.6,419.2,204.5z" />
									</g>
								</g>
								<g>
									<path class="st23" d="M424.4,193.4c0,0,0.7,11.9,1.6,14.2c0.9,2.3,2.7,3.8,5.7,4.2c2.9,0.4,6.2,6.2,7.4,7.9
									c1.3,1.7,4.8-1.7,16.2,0.8c4.5,0.9,5.8-6.9,9.3-8.4c3.6-1.5,4.8-1.4,6.6-4.6s3.8-10.7,3.6-13.2c0.3-0.9,1.4-0.8,1.4-0.8
									s-1.4,14.7-3.2,20.9c-1.8,6.2-6.2,12.8-16.1,15.3c-9.9,2.5-21.1-0.9-25.8-5c-4.7-4.2-7.1-14.1-7.2-19.5s-0.7-11.3-0.7-11.3
									L424.4,193.4z" />
								</g>
								<g>
									<path class="st23" d="M434.5,214.8c0,0,0.2-4.4,1.6-7.2s10.5-1.7,13.4-1.9c2.9-0.2,8.4,0,10.7,0.7c2.3,0.7,3,6.6,3.1,9
									c0.1,2.4-3.3,3.8-3.3,3.8s0.6-5.4-0.1-7.9c-0.7-2.5-8.8-0.8-10.9-2.9c-3.4,1.6-4.7,1.4-8.3,0.8c-3.6-0.6-3.4,6.2-2.5,11.1
									C437.5,221.9,434.5,214.8,434.5,214.8z" />
								</g>
								<g>
									<path class="st10" d="M475.8,192.9c0,0-1.9-4.7-4-9.2c-2.1-4.5-4.2-13.3-4.5-14.9c-5-5.7-13.9-6.8-22.6-1.8
									c-8.7,5-16.7,3.3-16.7,3.3c1,14.1-5.2,23.7-5.2,23.7s-3.6-12-3.1-17.1c0.5-5.1,2.8-19.2,12-21.9c9.1-2.7,24.7-2.8,30.7,0
									c5.9,2.8,12,9.2,12.1,12.7C474.5,171.1,475.8,192.9,475.8,192.9z" />
								</g>
								<g>
									<g>
										<path class="st23"
											d="M426.3,168.9c0,0.4-1.1,21.4-2.7,30.7c-0.6-7-3.5-10.1-5.9-10.4c-0.8-4-5.4-25.6,4.9-31.9
										c-0.9-7.2,13.9-13.9,29.5-13.3c15.5,0.7,26.5,10.7,28.2,22.5c1.7,11.8-1.2,22.6-1.2,22.6s-3.1,1.8-4.7,11.3
										c1.3-11.5-2.3-17.1-3.3-20.8c-0.9-3.8-2.4-11.3-2.4-11.3c-6-8.6-14.8-8.5-24.2-4.2C435.3,168.3,426.3,168.9,426.3,168.9z" />
									</g>
									<g>
										<path class="st23" d="M423.1,158.4c0,0-6.4-9,4.3-14.4c-3.6,3-5.5,5.2-3.6,9.3c-0.1-3.5,0.4-5.3,3.6-7.4
										c-1.3,3.3-1.4,6.6,0,7.1C428.8,153.4,423.1,158.4,423.1,158.4z" />
									</g>
									<g>
										<path class="st23" d="M423.1,161.4c0,0,5.4,6.5,11.5,5.6c6.1-0.9,10.4-5.7,17.4-5.6c-2.2-0.9-9.9-0.2-14.2,2.4
										C433.5,166.3,426.1,164.2,423.1,161.4z" />
									</g>
								</g>
							</g>
							<g>
								<path class="st23" d="M456.9,185.6c0,0,5.2-1.2,8.3,1.2c0.8,0.6,2.5,1.4,2.9,0.9c0.4-0.6,0-4.2-5.6-5.5
								c-3.9-0.9-6.1,0.1-6.7,1C455.3,184.1,455.8,185.6,456.9,185.6z" />
							</g>
							<g>
								<path class="st23" d="M441.6,185.6c0,0-4.3-0.8-7.3,0.5c-3.3,1.4-4.2,1.2-4.6,0.7s0.7-3.2,6.1-4.5c3.9-0.9,6.1,0.1,6.7,1
								C443.1,184.1,442.7,185.6,441.6,185.6z" />
							</g>
							<g>
								<g>
									<g>
										<path class="st14" d="M456.9,191.7c0,0,1.7-2.9,5.4-2.5c3.7,0.4,4.9,3.3,4.9,3.3s-2.6,0.1-4.9,0
										C460,192.4,456.9,191.7,456.9,191.7z" />
									</g>
									<g>
										<defs>
											<path id="SVGID_00000021803807341313863370000003584659710847652738_" d="M456.9,191.7c0,0,1.7-2.9,5.4-2.5
											c3.7,0.4,4.9,3.3,4.9,3.3s-2.6,0.1-4.9,0C460,192.4,456.9,191.7,456.9,191.7z" />
										</defs>
										<clipPath id="SVGID_00000147938858670175425150000018249265961206113721_">
											<use xlink:href="#SVGID_00000021803807341313863370000003584659710847652738_"
												style="overflow:visible;" />
										</clipPath>
										<g
											style="clip-path:url(#SVGID_00000147938858670175425150000018249265961206113721_);">
											<g>
												<path class="st12" d="M464.5,190.7c0.1,1.2-0.8,2.2-2,2.3c-1.2,0.1-2.2-0.8-2.3-2c-0.1-1.2,0.8-2.2,2-2.3
												C463.4,188.6,464.4,189.5,464.5,190.7z" />
											</g>
											<g>
												<g>
													<path class="st16" d="M463.4,190.7c0,0.6-0.4,1.1-1,1.1c-0.6,0-1.1-0.4-1.1-1c0-0.6,0.4-1.1,1-1.1
													C462.8,189.7,463.3,190.2,463.4,190.7z" />
												</g>
												<g>
													<path class="st14" d="M463.7,190.3c0,0.2-0.2,0.5-0.4,0.5c-0.2,0-0.5-0.2-0.5-0.4c0-0.2,0.2-0.5,0.4-0.5
													C463.4,189.8,463.7,190,463.7,190.3z" />
												</g>
											</g>
										</g>
									</g>
								</g>
								<g>
									<path class="st12" d="M456.9,191.7c0.5-1,1.3-1.8,2.3-2.4c1-0.5,2.3-0.7,3.4-0.5c1.1,0.2,2.2,0.6,3.1,1.3
									c0.5,0.3,0.8,0.8,1.1,1.3c0.3,0.5,0.5,1,0.7,1.5c-0.6-0.9-1.3-1.7-2.2-2.2c-0.9-0.5-1.9-0.8-2.9-1c-1-0.2-2-0.1-3,0.2
									C458.6,190.3,457.7,190.9,456.9,191.7z" />
								</g>
								<g>
									<path class="st17" d="M457.4,190.6c0.4-0.9,1.2-1.7,2.1-2.2c0.9-0.5,2-0.6,3-0.6c1,0.1,2.1,0.4,2.9,1
									c0.8,0.6,1.5,1.4,1.8,2.4c-0.4-0.9-1.1-1.6-2-2.2c-0.8-0.5-1.8-0.8-2.8-0.9c-1-0.1-2,0.1-2.8,0.5
									C458.7,189.1,457.9,189.8,457.4,190.6z" />
								</g>
							</g>
							<g>
								<g>
									<g>
										<path class="st14" d="M441.6,191.7c0,0-1.7-2.9-5.4-2.5s-4.9,3.3-4.9,3.3s2.6,0.1,4.9,0
										C438.5,192.4,441.6,191.7,441.6,191.7z" />
									</g>
									<g>
										<defs>
											<path id="SVGID_00000052067701714018029750000017277048085538742927_" d="M441.6,191.7c0,0-1.7-2.9-5.4-2.5
											s-4.9,3.3-4.9,3.3s2.6,0.1,4.9,0C438.5,192.4,441.6,191.7,441.6,191.7z" />
										</defs>
										<clipPath id="SVGID_00000082331704850938242770000006906770377929613448_">
											<use xlink:href="#SVGID_00000052067701714018029750000017277048085538742927_"
												style="overflow:visible;" />
										</clipPath>
										<g
											style="clip-path:url(#SVGID_00000082331704850938242770000006906770377929613448_);">
											<g>
												<path class="st12" d="M434,190.7c-0.1,1.2,0.8,2.2,2,2.3c1.2,0.1,2.2-0.8,2.3-2c0.1-1.2-0.8-2.2-2-2.3
												C435.1,188.6,434.1,189.5,434,190.7z" />
											</g>
											<g>
												<g>
													<path class="st16" d="M435.2,190.7c0,0.6,0.4,1.1,1,1.1c0.6,0,1.1-0.4,1.1-1c0-0.6-0.4-1.1-1-1.1
													C435.7,189.7,435.2,190.2,435.2,190.7z" />
												</g>
												<g>
													<path class="st14" d="M434.8,190.3c0,0.2,0.2,0.5,0.4,0.5c0.2,0,0.5-0.2,0.5-0.4c0-0.2-0.2-0.5-0.4-0.5
													C435.1,189.8,434.9,190,434.8,190.3z" />
												</g>
											</g>
										</g>
									</g>
								</g>
								<g>
									<path class="st12" d="M441.6,191.7c-0.5-1-1.3-1.8-2.3-2.4c-1-0.5-2.3-0.7-3.4-0.5c-1.1,0.2-2.2,0.6-3.1,1.3
									c-0.5,0.3-0.8,0.8-1.1,1.3c-0.3,0.5-0.5,1-0.7,1.5c0.6-0.9,1.3-1.7,2.2-2.2c0.9-0.5,1.9-0.8,2.9-1c1-0.2,2-0.1,3,0.2
									C440,190.3,440.8,190.9,441.6,191.7z" />
								</g>
								<g>
									<path class="st17" d="M441.2,190.6c-0.4-0.9-1.2-1.7-2.1-2.2c-0.9-0.5-2-0.6-3-0.6c-1,0.1-2.1,0.4-2.9,1
									c-0.8,0.6-1.5,1.4-1.8,2.4c0.4-0.9,1.1-1.6,2-2.2c0.8-0.5,1.8-0.8,2.8-0.9c1-0.1,2,0.1,2.8,0.5
									C439.8,189.1,440.6,189.8,441.2,190.6z" />
								</g>
							</g>
							<g>
								<path class="st10"
									d="M445.4,216.9c0,0,3.3,3.1,8,0C451.4,220.9,446.9,220.3,445.4,216.9z" />
							</g>
							<g>
								<path class="st9" d="M443.9,185.3c0,0,3.1,3.8,3.3,6.2c0.1,2.4-2.3,9.6-2.5,11.2c-0.1,1.6,4,3.3,7.7,2.9
								c-5.8,1.1-7.4,0.9-9-1.5c-1.6-2.4,1.3-4.6,3-11.8C446.5,190.8,443.9,185.3,443.9,185.3z" />
							</g>
							<g>
								<path class="st19"
									d="M452.4,201.7c0,1.1-1.5,1.9-3.4,1.9s-3.4-0.9-3.4-1.9c0-1.1,1.5-1.3,3.4-1.3S452.4,200.6,452.4,201.7z" />
							</g>
							<g>
								<g>
									<path class="st20"
										d="M441.7,210.1c0,0,10.1,1.3,15.6,0C455.4,217.1,445.3,220.5,441.7,210.1z" />
								</g>
								<g>
									<path class="st21"
										d="M454.3,214.7c-5-2.4-8.3-0.7-9.6,0.2C447.7,217.6,451.6,217,454.3,214.7z" />
								</g>
								<g>
									<path class="st14" d="M457.2,210.1c-4.9,1.1-13.3,0.2-15.1,0c0.2,0.3,0.8,0.9,1.8,1.2c1.4,0.4,7.7,0.8,10.1,0.3
									C455.9,211.3,456.8,210.5,457.2,210.1z" />
								</g>
							</g>
						</g>
					</g>
					<g>
						<g>
							<path class="st12" d="M464,200c-0.3,0-0.6,0-0.8,0c-2.7-0.2-6.4-1.7-8-3.8c-1.8-2.5-1.7-5.4-1.7-6.6l0-0.3
							c0-1,0.3-1.8,0.9-2.4c0.9-0.9,2.1-1,2.3-1c1.4-0.1,13.1-0.8,16,2.1l0.1,0.1c1.7,2.1,0.9,5.4-0.3,7.6
							C470.3,199.5,466.2,200,464,200z M460.9,187.5c-1.5,0-2.9,0-4.1,0.1l-0.1,0c0,0-0.8,0-1.2,0.5c-0.3,0.3-0.4,0.7-0.4,1.2l0,0.3
							c0,1,0,3.6,1.4,5.6c1.1,1.5,4.2,3,6.8,3.1c1.3,0.1,5.7,0.1,7.8-3.5c0.7-1.3,1.8-4.1,0.5-5.7
							C470.2,187.9,465.3,187.5,460.9,187.5z" />
						</g>
						<g>
							<path class="st12"
								d="M435.2,200c-2.1,0-6.3-0.5-8.4-4.3c-1.2-2.2-2-5.4-0.3-7.6l0.1-0.1c2.9-2.8,14.6-2.2,16-2.1
							c0.2,0,1.5,0.1,2.3,1c0.6,0.6,0.9,1.4,0.9,2.4l0,0.3c0,1.1,0.1,4.1-1.7,6.6c-1.5,2.1-5.3,3.6-8,3.8
							C435.8,200,435.5,200,435.2,200z M427.6,189.2c-1.2,1.6-0.2,4.5,0.5,5.7c2,3.6,6.5,3.6,7.8,3.5c2.6-0.2,5.7-1.6,6.8-3.1
							c1.5-2,1.4-4.6,1.4-5.6l0-0.3c0-0.6-0.1-1-0.4-1.2c-0.5-0.5-1.2-0.5-1.2-0.5l-0.1,0C437.7,187.3,429.5,187.4,427.6,189.2z" />
						</g>
						<g>
							<path class="st12"
								d="M454,189.4c0,0-4.9-2.2-9,0l-0.8-1.4c4.8-2.5,10.1-0.1,10.4,0L454,189.4z" />
						</g>
					</g>
					<g>
						<g>
							<path class="st8"
								d="M367.7,343.2c0,0-10.5,34.5-8,45.7c2.5,11.2,24.4,16.5,28.9,8.8c4.5-7.6,10.2-42,10.2-42L367.7,343.2z" />
						</g>
						<g>
							<path class="st10"
								d="M367.7,343.2c0,0-5,16.5-7.3,30.4c8.5-7.6,21.8-10.5,35.4-1.8c1.8-8.7,3-16.1,3-16.1L367.7,343.2z" />
						</g>
						<g>
							<path class="st8"
								d="M535.5,343.2c0,0,10.5,34.5,8,45.7c-2.5,11.2-24.4,16.5-28.9,8.8c-4.5-7.6-10.2-42-10.2-42L535.5,343.2z" />
						</g>
						<g>
							<path class="st10"
								d="M541.2,365c-2.5-11.3-5.7-21.8-5.7-21.8l-31,12.6c0,0,1.1,6.6,2.7,14.7C517.1,365,529.5,363,541.2,365z" />
						</g>
						<g>
							<path class="st32" d="M513,365.6c1.1-33.8,7.8-92,7.8-92s-34.3-24.9-50.9-29.8c0.1,1,0.1,1.9,0.1,2.9c0,0,0,0,0,0
							c-0.2,6-1.7,23.7-19.5,23.9c-19.9,0.2-19.4-26.8-19.4-26.8c-16.6,4.8-50.9,29.8-50.9,29.8s6.7,58.2,7.8,92
							c0.6,18.2-2.4,67.1-5.3,96.9c7.9,3.4,16.3,5.4,25.5,6.6c13.9,1.2,27.6,1.9,41.4,1.9v0c1.5,0,3,0,4.5,0c0.5,0,1.1,0,1.6,0
							c1.2,0,2.4,0,3.6-0.1c0.6,0,1.2,0,1.8,0c1.2,0,2.5-0.1,3.7-0.1c0.5,0,1,0,1.4-0.1c1.7-0.1,3.5-0.1,5.2-0.2c0.1,0,0.3,0,0.4,0
							c1.6-0.1,3.2-0.2,4.9-0.3c0.4,0,0.8-0.1,1.2-0.1c1.5-0.1,3-0.2,4.5-0.3c0.3,0,0.6,0,0.9-0.1c3.6-0.3,7.2-0.7,10.8-1.1
							c0.2,0,0.5-0.1,0.7-0.1c1.6-0.2,3.3-0.4,4.9-0.6c0.1,0,0.3,0,0.4,0c0,0,0,0,0,0c6.2-0.9,12.4-1.9,18.6-3.1
							C515.6,434.5,512.4,384.3,513,365.6z" />
						</g>
						<g>
							<path class="st28" d="M465.7,301.8c1.1-0.5,37.4,1.1,37.4,1.1s-1,32.2-1.9,34.4c-0.9,2.2-6.2,5.9-6.2,5.9l-24.3-1.2l-5-4.8
							V301.8z" />
						</g>
						<g>
							<path class="st33" d="M386.4,339.3c0.7,9.4,1.2,18.5,1.5,26.3c0.5,15.8-1.7,54.6-4.2,84.1c3.1-14.7,9.1-28,22.2-37
							c29-20.9,65.9-11.3,96.5,0c4.6,1.3,8.7,4.8,12.7,7.8c-1-16.2-1.8-32.2-2-43.9c-11.6-0.1-23.2-0.9-34.7-1.7
							C445,372.1,414.2,358,386.4,339.3z" />
						</g>
						<g>
							<g>
								<g>
									<path class="st28" d="M394.3,419.4c0,0,30.1-7.9,39.5-14.7c2.6,6.1,3,8.4,3,8.4s-24.8,12.1-41.5,12.1
									C394.8,423.2,394.3,419.4,394.3,419.4z" />
								</g>
							</g>
							<g>
								<path class="st32" d="M387.9,365.6L391,350c0,0,1.8-53.1-10.9-76.3c0,0-18.1,39-24.1,76.3
								C370.4,351.3,387.9,365.6,387.9,365.6z" />
							</g>
							<g>
								<path class="st28" d="M356.8,345.3c-0.3,1.5-0.6,3.1-0.8,4.6c14.4,1.3,31.9,15.7,31.9,15.7L391,350c0,0,0.3-8.8-0.2-20.7
								C376.3,325.9,362.5,333.2,356.8,345.3z" />
							</g>
							<g>
								<path class="st28"
									d="M380.1,275.5c0,0,9.8,24.2,7.1,74.5C389.6,338.3,393.1,291,380.1,275.5z" />
							</g>
						</g>
						<g>
							<g>
								<g>
									<path class="st28" d="M508.1,419.4c0,0-30.1-7.9-39.5-14.7c-2.6,6.1-3,8.4-3,8.4s24.8,12.1,41.5,12.1
									C507.7,423.2,508.1,419.4,508.1,419.4z" />
								</g>
							</g>
							<g>
								<path class="st32" d="M511.3,365.9l2.4-15.9c0,0-7-57.3,7-76.3c0,0,15.6,31.8,25.5,78.1C531.9,353.1,511.3,365.9,511.3,365.9
								z" />
							</g>
							<g>
								<path class="st28"
									d="M520.7,275.5c0,0-10.4,39.9-7.7,90.1C507.4,337.3,507.8,291,520.7,275.5z" />
							</g>
						</g>
					</g>
				</g>
				<g>
					<g>
						<g>
							<g>
								<path class="st34" d="M421.2,256.3c-2.7,10.5-0.4,20.2,3.1,28.7c0.2-0.5,0.7-0.8,1.2-1c-3.2-8.2-5.4-17.4-2.8-27.3
								c2.4-9.3,7.1-15.2,10.9-18.5l0.2-2.4C429.6,239,424,245.3,421.2,256.3z" />
							</g>
						</g>
						<g>
							<g>
								<path class="st34" d="M436.3,338.1c-0.4,0.1-0.8-0.2-0.8-0.6c-0.1-0.4,0.2-0.8,0.6-0.9c2.4-0.4,4.4-1.3,4.5-1.7
								c0-1.4-3.2-31.6-4.5-38.3c-1-5.2-3.3-11.5-8.9-12.1c-2-0.2-3.9,0.4-5.5,1.7c-2.3,1.9-3.6,5.3-3.8,9.3
								c-0.4,8.3,2.2,39.2,3.2,41.1c0.6,0.7,3.4,1,5.1,0.9c0.4,0,0.8,0.3,0.8,0.7c0,0.4-0.3,0.7-0.7,0.8c-0.8,0-5,0.2-6.4-1.5
								c-1.6-1.8-3.9-35.3-3.6-42.1c0.2-4.5,1.8-8.2,4.4-10.4c1.9-1.6,4.1-2.3,6.6-2.1c5.1,0.5,8.7,5.1,10.2,13.3
								c1.3,6.7,4.5,37.1,4.5,38.6C442,336.9,438,337.8,436.3,338.1C436.3,338.1,436.3,338.1,436.3,338.1z" />
							</g>
						</g>
						<g>
							<path class="st35" d="M424.2,338c0,0,0-0.7,0.6-0.7c0.6,0,2.1-0.1,2.5,0.2c0.4,0.3,0.3,1.8,0,2c-0.2,0.2-2.1,0-2.6,0.1
							C424.2,339.6,424.1,338.6,424.2,338z" />
						</g>
						<g>
							<path class="st35" d="M438.3,336.3c0,0-0.2-0.5-0.7-0.4c-0.5,0.2-2.1,0.4-2.4,0.8c-0.3,0.4,0.3,1.7,0.6,1.9
							c0.3,0.2,2-0.5,2.5-0.6C438.8,337.9,438.5,336.9,438.3,336.3z" />
						</g>
						<g>
							<g>
								<path class="st35" d="M427.4,282.8c-2.5-0.3-4.9,0.5-6.9,2.1c-2.7,2.3-4.2,6.1-4.5,10.6c0,0.5,0,1.1,0,1.9l2.2-0.2
								c0-0.6,0-1.2,0-1.6c0.2-4,1.5-7.2,3.7-9.1c1.5-1.3,3.3-1.8,5.2-1.6c5.1,0.5,7.3,6,8.4,10.9l2.2-0.2
								C436.2,287.8,432.6,283.3,427.4,282.8z" />
							</g>
						</g>
					</g>
					<g>
						<g>
							<g>
								<path class="st34" d="M489.5,272.2c-7.2-28.4-17.6-35.4-22.7-37l0.2,1.6c4.8,1.9,14.3,9.1,21,35.8
								c3.8,15.1,4.6,27.7,4.1,37.4h1.5C494.1,300.1,493.3,287.4,489.5,272.2z" />
							</g>
						</g>
						<g>

							<ellipse transform="matrix(0.7071 -0.7071 0.7071 0.7071 -74.5858 439.5362)" class="st35"
								cx="493.3" cy="309.8" rx="8" ry="8" />
						</g>
						<g>
							<path class="st36" d="M497.9,309.8c0,2.6-2.1,4.7-4.7,4.7c-2.6,0-4.7-2.1-4.7-4.7c0-2.6,2.1-4.7,4.7-4.7
							C495.8,305.1,497.9,307.2,497.9,309.8z" />
						</g>
					</g>
				</g>
				<g>
					<path class="st8" d="M540.2,394.8c0,0-19.4,17.7-66.7,5.3c-34.7-9-55.6-18.8-79.1-37.9c7.8-9.2,16.6-7.6,46.6,1
					c30,8.6,68.2,5.4,80.3,6.6C533.3,371.1,544.4,379.2,540.2,394.8z" />
				</g>
				<g>
					<path class="st10"
						d="M495,371.9c0,0,20-4.6,40.1,4.5c-4.8-5.2-20.5-10.3-44.9-4.9C490.2,372.5,495,371.9,495,371.9z" />
				</g>
				<g>
					<path class="st10" d="M503.1,369.5c-17.2,0-41.6-0.4-62.2-6.3c-30-8.6-38.8-10.3-46.6-1c21.8,17.7,41.3,27.3,71.7,35.8
					C467.5,382.3,488.4,372.1,503.1,369.5z" />
				</g>
				<g>
					<path class="st8" d="M451.6,364.3c0,0-26.7-8.9-38.9-21.1c-8.2-8.2-15.7-10.7-21.3-13.1c-5.6-2.4-18.3-1.6-20.9-0.4
					c-0.9,0.4-0.6,2.1,0.6,2.7c0.9,0.4,2.4,0.2,3.8,0.4c3.4,0.4,12.6,1.2,16.7,6.4c-9.9-3.3-13.9-3.1-17.5-2.2
					c-3.5,0.9-10.7,4.5-11.5,5.2c-1,1,0.2,3.7,4.6,2.9c2.9-0.5,8.7-2.1,10.9-2.3c2.2-0.3,8.3,1.8,10.4,4c-6.3-2.1-8.9-3-12.3-2.2
					c-3.4,0.8-12.9,3.4-14.1,4.7c-1.2,1.3,0.3,3.5,5.6,2.8c4.3-0.5,10-2.1,12.7-1.5c2.7,0.7,8.1,3.8,8.6,4.3
					c-7.4,0.2-10.1,1.1-13.2,2.7c-3.1,1.6-7.2,4.4-8,5.9c-0.8,1.4,2,2.5,5.5,0.7c3.5-1.8,8.8-2.6,11.2-2.2c2.4,0.3,6.4,0.8,11.4,4.9
					c5,4.1,22.8,0.9,29,0.1C431.2,366.3,451.6,364.3,451.6,364.3z" />
				</g>
				<path class="st37" d="M370.5,329.6c0,0-0.1,1.3,0.2,1.6c0.4,0.2,3,0.1,3.4-0.2c0.4-0.3,0.7-1.6,0.4-2.1
				C374.5,328.8,370.5,329.6,370.5,329.6z" />
				<path class="st37" d="M362.7,342.2c0,0,0.6,1.8,1,2c0.4,0.1,3-1.1,3.3-1.4c0.3-0.4-0.2-2.1-0.6-2.5
				C366.3,340.1,362.7,342.2,362.7,342.2z" />
				<path class="st37" d="M362.2,349.3c0,0,0.6,1.8,1,2c0.4,0.1,3-1.1,3.3-1.4c0.3-0.4,0-2.4-0.5-2.3
				C363.8,348,362.2,349.3,362.2,349.3z" />
				<path class="st37" d="M368.1,363.3c0,0,1.1,1.6,1.5,1.6c0.5,0,2.6-1.8,2.8-2.3c0.2-0.4-0.7-2.3-1.1-2.1
				C369.3,361.6,368.1,363.3,368.1,363.3z" />
				<g>
					<path class="st10" d="M423.8,351.6c1,12.5-17.3,13.2-29.7,13.9c0.6,0.4,1.3,0.9,1.9,1.4c5,4.1,22.8,0.9,29,0.1
					c6.2-0.8,26.6-2.7,26.6-2.7S436.5,359.3,423.8,351.6z" />
				</g>
				<g>
					<path class="st8" d="M368.9,398.8c0,0,22.7,10.9,57-4c35.8-15.5,64.2-25.8,81.6-25.2C497,350,471,352.4,446.3,358.4
					c-30.3,7.4-47.2,9.9-65.1,8.6C369.1,366.2,364.6,383.3,368.9,398.8z" />
				</g>
			</g>
		</g>
		<g>
			<g>
				<path class="st38" d="M561.7,411.7c0,0,18.8-36.3,73.2-34.3c-20,23.3-52.7,38.3-51.3,39c36.6,4.7,51.3,19.2,51.3,19.2
				c-34.1,8.5-62.4,9.7-83.8,7.6C529.7,441.1,561.7,411.7,561.7,411.7z" />
			</g>
			<g>
				<g>
					<g>
						<path class="st38" d="M529,368c-0.3,0-0.6-0.1-0.7-0.4c-0.2-0.4,0-0.8,0.3-1c0.2-0.1,19.3-9.8,34.6-29.9
						c14-18.5,27.4-49.8,11.9-94.1c-0.1-0.4,0.1-0.8,0.5-1c0.4-0.1,0.8,0.1,1,0.5c7,19.9,8.8,38.8,5.5,56.4
						c-2.7,14.1-8.6,27.3-17.7,39.2c-15.4,20.3-34.8,30.1-35,30.2C529.2,368,529.1,368,529,368z" />
					</g>
				</g>
				<g>
					<g>
						<path class="st38" d="M578,249.2c0,0-16.8-0.5-7.7-28.1C581.5,231.6,585,243.4,578,249.2z" />
					</g>
					<g>
						<path class="st38"
							d="M580.9,263.8c0,0-13.5,10-23.4-17.4C572.8,247.8,582.8,254.9,580.9,263.8z" />
					</g>
					<g>
						<path class="st38"
							d="M582.3,265.8c0,0-12.6-11.1,12-26.5C596.2,254.5,591.4,265.8,582.3,265.8z" />
					</g>
					<g>
						<path class="st38"
							d="M582.8,287.4c0,0-14.6,8.2-21.1-20.1C576.7,270.6,585.8,278.9,582.8,287.4z" />
					</g>
					<g>
						<path class="st38" d="M583.1,287.5c0,0-8-14.8,20.5-20.7C600,281.7,591.6,290.6,583.1,287.5z" />
					</g>
					<g>
						<path class="st38" d="M577.9,310.1c0,0-16.7,1.9-11.7-26.7C578.8,292.2,584,303.3,577.9,310.1z" />
					</g>
					<g>
						<path class="st38" d="M578.2,310.2c0,0-1.6-16.7,26.9-11.2C596,311.4,584.8,316.4,578.2,310.2z" />
					</g>
					<g>
						<path class="st38" d="M569.7,328.5c0,0-16.8-0.4-7.9-28C573.1,310.9,576.7,322.6,569.7,328.5z" />
					</g>
					<g>
						<path class="st38"
							d="M569.9,328.6c0,0,0.7-16.8,28.2-7.4C587.5,332.3,575.7,335.7,569.9,328.6z" />
					</g>
					<g>
						<path class="st38"
							d="M556.8,345.3c0,0-13.9-3.8-0.8-24.9C563.2,331.3,563.8,341.8,556.8,345.3z" />
					</g>
					<g>
						<path class="st38" d="M556.9,345.4c0,0,4-13.8,25-0.4C570.7,352.1,560.2,352.5,556.9,345.4z" />
					</g>
				</g>
			</g>
			<g>
				<g>
					<g>
						<path class="st6" d="M543.3,276.2c0.2,0.1,0.4,0.1,0.6,0c0.2-0.2,0.3-0.5,0.1-0.7c-0.1-0.1-8.3-12.4-10.6-29.6
						c-2.1-15.8,0.4-39.2,24.8-60.5c0.2-0.2,0.2-0.5,0-0.7c-0.2-0.2-0.5-0.2-0.7,0c-10.9,9.6-18.5,20.3-22.4,32
						c-3.2,9.3-4.1,19.3-2.7,29.5c2.4,17.4,10.7,29.9,10.8,30C543.2,276.1,543.2,276.1,543.3,276.2z" />
					</g>
				</g>
				<g>
					<g>
						<path class="st6" d="M554.2,188.2c0,0,10.3,5.4,14.1-14.3C558.1,176.5,552,182.4,554.2,188.2z" />
					</g>
					<g>
						<path class="st6" d="M547.5,196c0,0,4.7,10.6,19.9-2.5C557.8,189.2,549.4,190,547.5,196z" />
					</g>
					<g>
						<path class="st6" d="M545.9,196.8c0,0,11.3-2.4,1.8-20C541.4,185.3,540.5,193.7,545.9,196.8z" />
					</g>
					<g>
						<path class="st6" d="M538.3,209.6c0,0,6,9.9,19.5-4.9C547.7,201.5,539.4,203.4,538.3,209.6z" />
					</g>
					<g>
						<path class="st6" d="M538.2,209.5c0,0,9.8-6.2-5.2-19.4C530,200.3,532,208.5,538.2,209.5z" />
					</g>
					<g>
						<path class="st6" d="M533.6,224.8c0,0,9.4,6.8,16.1-12.1C539.1,213.8,532.2,218.7,533.6,224.8z" />
					</g>
					<g>
						<path class="st6" d="M533.4,224.8c0,0,6.6-9.5-12.4-15.8C522.3,219.5,527.3,226.3,533.4,224.8z" />
					</g>
					<g>
						<path class="st6"
							d="M532.3,238.6c0,0,10.2,5.5,14.3-14.1C536.2,226.9,530.1,232.7,532.3,238.6z" />
					</g>
					<g>
						<path class="st6" d="M532.1,238.6c0,0,5.3-10.3-14.4-14C520.3,234.9,526.2,240.9,532.1,238.6z" />
					</g>
					<g>
						<path class="st6" d="M534.3,253.1c0,0,9.6,2.5,9-14.7C535.2,242.6,531.3,248.7,534.3,253.1z" />
					</g>
					<g>
						<path class="st6" d="M534.2,253.1c0,0,2.3-9.7-14.9-8.7C523.6,252.4,529.8,256.2,534.2,253.1z" />
					</g>
				</g>
			</g>
			<g>
				<g>
					<g>
						<path class="st39" d="M525.2,494.2c8.4-34.9,21.3-55.6,45-77.1c26.7-24.3,53-66.3,57.5-100.3c0,0-17.8,20.9-42.7,27.6
						s-57.7,2.4-73.6,42.2c-11.8,29.7,0,82.6,6.8,107.6H525.2z" />
					</g>
				</g>
				<g>
					<g>
						<g>
							<path class="st5" d="M622.8,326.1c-0.4-0.2-1-0.1-1.3,0.4c-0.2,0.3-15.7,27.7-57.2,57.7c-34.6,25-44.9,70.5-43.3,110h1.8
							c-1.6-39.1,8.5-83.9,42.5-108.5c41.8-30.3,57.5-58,57.7-58.3C623.4,326.9,623.2,326.4,622.8,326.1z" />
						</g>
					</g>
					<g>
						<g>
							<path class="st5" d="M610.4,361.3C610.4,361.3,610.4,361.3,610.4,361.3l-16.6-0.4l0-17.1c0-0.3,0.2-0.5,0.5-0.5c0,0,0,0,0,0
							c0.3,0,0.5,0.2,0.5,0.5l0,16.2l15.7,0.3c0.3,0,0.5,0.2,0.5,0.5C610.9,361.1,610.7,361.3,610.4,361.3z" />
						</g>
					</g>
					<g>
						<g>
							<path class="st5"
								d="M595.2,383.9c-1.1,0-4.1-0.3-12.5-1.1c-6.3-0.6-12.7-1.2-12.7-1.2l-0.5,0l3.8-32.1c0-0.3,0.3-0.4,0.5-0.4
							c0.3,0,0.4,0.3,0.4,0.5l-3.7,31.1c7.1,0.7,24.2,2.3,24.8,2.3l0,0.5l0.5,0.2C595.8,383.8,595.8,383.9,595.2,383.9z" />
						</g>
					</g>
					<g>
						<g>
							<path class="st5" d="M572.9,407.2C572.9,407.2,572.9,407.2,572.9,407.2l-27-4l0.1-0.4l5.6-47.8c0-0.3,0.3-0.4,0.5-0.4
							c0.3,0,0.4,0.3,0.4,0.5l-5.6,47.3l26,3.8c0.3,0,0.4,0.3,0.4,0.5C573.4,407.1,573.2,407.2,572.9,407.2z" />
						</g>
					</g>
					<g>
						<g>
							<path class="st5" d="M533,426l-12.1-48.5c-0.1-0.2,0.1-0.5,0.3-0.6c0.2-0.1,0.5,0.1,0.6,0.3l12,47.7l24.2-1.8
							c0.3,0,0.5,0.2,0.5,0.4c0,0.3-0.2,0.5-0.4,0.5L533,426z" />
						</g>
					</g>
					<g>
						<g>
							<path class="st5" d="M525.3,451l-0.2-0.4l-15.3-30.7c-0.1-0.2,0-0.5,0.2-0.6c0.2-0.1,0.5,0,0.6,0.2l15.1,30.3l19.6-7.6
							c0.2-0.1,0.5,0,0.6,0.3c0.1,0.2,0,0.5-0.3,0.6L525.3,451z" />
						</g>
					</g>
					<g>
						<g>
							<path class="st5" d="M522.6,469.1L511.9,454c-0.1-0.2-0.1-0.5,0.1-0.6c0.2-0.1,0.5-0.1,0.6,0.1l10.2,14.4l9.6-5.8
							c0.2-0.1,0.5-0.1,0.6,0.2c0.1,0.2,0.1,0.5-0.2,0.6L522.6,469.1z" />
						</g>
					</g>
				</g>
			</g>
			<g>
				<g>
					<ellipse class="st4" cx="511" cy="366.2" rx="18.9" ry="24.4" />
				</g>
				<g>
					<path class="st4" d="M531.6,380.6c0,0,79.6-98.2-40.4-175.5C513.3,295.1,539.3,324.3,531.6,380.6z" />
				</g>
				<g>
					<g>
						<path class="st5" d="M531.6,381.5c-0.1,0-0.3,0-0.4-0.1c-0.4-0.2-0.6-0.8-0.4-1.2c0.1-0.2,10.7-20,11.8-50.2
						c1.1-27.9-6-70.6-45.4-115.9c-0.3-0.4-0.3-0.9,0.1-1.2c0.4-0.3,0.9-0.3,1.2,0.1c39.8,45.7,46.9,89,45.8,117.2
						c-1.2,30.6-11.9,50.7-12.1,50.9C532.2,381.3,531.9,381.5,531.6,381.5z" />
					</g>
					<g>
						<path class="st5" d="M518.8,241.5l-18.3-8c-0.2-0.1-0.3-0.4-0.2-0.6c0.1-0.2,0.4-0.3,0.6-0.2l17,7.5l0-12.5
						c0-0.2,0.2-0.4,0.4-0.4h0c0.2,0,0.4,0.2,0.4,0.4L518.8,241.5z" />
					</g>
					<g>
						<path class="st5" d="M531.1,264.8l-25-8.7c-0.2-0.1-0.3-0.3-0.3-0.6c0.1-0.2,0.3-0.3,0.6-0.3l24,8.4l2.4-19.1
						c0-0.2,0.2-0.4,0.5-0.4c0.2,0,0.4,0.3,0.4,0.5L531.1,264.8z" />
					</g>
					<g>
						<path class="st5" d="M539.3,288.8l-23.4-7.5c-0.2-0.1-0.4-0.3-0.3-0.6c0.1-0.2,0.3-0.4,0.6-0.3l22.6,7.2l7.6-20.2
						c0.1-0.2,0.3-0.3,0.6-0.3c0.2,0.1,0.3,0.3,0.3,0.6L539.3,288.8z" />
					</g>
					<g>
						<path class="st5" d="M543.2,312.2l-18.4-6.7c-0.2-0.1-0.3-0.3-0.3-0.6c0.1-0.2,0.3-0.3,0.6-0.3l17.8,6.4l11.9-16.7
						c0.1-0.2,0.4-0.2,0.6-0.1c0.2,0.1,0.2,0.4,0.1,0.6L543.2,312.2z" />
					</g>
					<g>
						<path class="st5" d="M543.5,333.5l-11.4-6.8c-0.2-0.1-0.3-0.4-0.2-0.6c0.1-0.2,0.4-0.3,0.6-0.2l10.7,6.5l11.5-13.2
						c0.2-0.2,0.4-0.2,0.6,0c0.2,0.2,0.2,0.4,0,0.6L543.5,333.5z" />
					</g>
					<g>
						<path class="st5" d="M540.7,353.8l-7.5-8.2c-0.2-0.2-0.2-0.5,0-0.6c0.2-0.2,0.5-0.2,0.6,0l6.9,7.5l8.7-9.6
						c0.2-0.2,0.4-0.2,0.6,0c0.2,0.2,0.2,0.4,0,0.6L540.7,353.8z" />
					</g>
				</g>
			</g>
			<g>
				<path class="st38" d="M179.9,411.7c0,0-18.8-36.3-73.2-34.3c20,23.3,52.7,38.3,51.3,39c-36.6,4.7-51.3,19.2-51.3,19.2
				c34.1,8.5,62.4,9.7,83.8,7.6C212,441.1,179.9,411.7,179.9,411.7z" />
			</g>
			<g>
				<g>
					<g>
						<path class="st38" d="M212.6,368c0.3,0,0.6-0.1,0.7-0.4c0.2-0.4,0-0.8-0.3-1c-0.2-0.1-19.3-9.8-34.6-29.9
						c-14-18.5-27.4-49.8-11.9-94.1c0.1-0.4-0.1-0.8-0.5-1c-0.4-0.1-0.8,0.1-1,0.5c-7,19.9-8.8,38.8-5.5,56.4
						c2.7,14.1,8.6,27.3,17.7,39.2c15.4,20.3,34.8,30.1,35,30.2C212.4,368,212.5,368,212.6,368z" />
					</g>
				</g>
				<g>
					<g>
						<path class="st38"
							d="M163.6,249.2c0,0,16.8-0.5,7.7-28.1C160.1,231.6,156.6,243.4,163.6,249.2z" />
					</g>
					<g>
						<path class="st38"
							d="M160.8,263.8c0,0,13.5,10,23.4-17.4C168.9,247.8,158.8,254.9,160.8,263.8z" />
					</g>
					<g>
						<path class="st38"
							d="M159.3,265.8c0,0,12.6-11.1-12-26.5C145.4,254.5,150.2,265.8,159.3,265.8z" />
					</g>
					<g>
						<path class="st38"
							d="M158.8,287.4c0,0,14.6,8.2,21.1-20.1C164.9,270.6,155.8,278.9,158.8,287.4z" />
					</g>
					<g>
						<path class="st38" d="M158.6,287.5c0,0,8-14.8-20.5-20.7C141.6,281.7,150,290.6,158.6,287.5z" />
					</g>
					<g>
						<path class="st38"
							d="M163.7,310.1c0,0,16.7,1.9,11.7-26.7C162.8,292.2,157.6,303.3,163.7,310.1z" />
					</g>
					<g>
						<path class="st38"
							d="M163.5,310.2c0,0,1.6-16.7-26.9-11.2C145.6,311.4,156.8,316.4,163.5,310.2z" />
					</g>
					<g>
						<path class="st38" d="M171.9,328.5c0,0,16.8-0.4,7.9-28C168.6,310.9,164.9,322.6,171.9,328.5z" />
					</g>
					<g>
						<path class="st38" d="M171.7,328.6c0,0-0.7-16.8-28.2-7.4C154.2,332.3,166,335.7,171.7,328.6z" />
					</g>
					<g>
						<path class="st38"
							d="M184.9,345.3c0,0,13.9-3.8,0.8-24.9C178.5,331.3,177.9,341.8,184.9,345.3z" />
					</g>
					<g>
						<path class="st38" d="M184.7,345.4c0,0-4-13.8-25-0.4C170.9,352.1,181.4,352.5,184.7,345.4z" />
					</g>
				</g>
			</g>
			<g>
				<g>
					<g>
						<path class="st6" d="M198.4,276.2c-0.2,0.1-0.4,0.1-0.6,0c-0.2-0.2-0.3-0.5-0.1-0.7c0.1-0.1,8.3-12.4,10.6-29.6
						c2.1-15.8-0.4-39.2-24.8-60.5c-0.2-0.2-0.2-0.5,0-0.7c0.2-0.2,0.5-0.2,0.7,0c10.9,9.6,18.5,20.3,22.4,32
						c3.2,9.3,4.1,19.3,2.7,29.5c-2.4,17.4-10.7,29.9-10.8,30C198.5,276.1,198.4,276.1,198.4,276.2z" />
					</g>
				</g>
				<g>
					<g>
						<path class="st6"
							d="M187.4,188.2c0,0-10.3,5.4-14.1-14.3C183.6,176.5,189.7,182.4,187.4,188.2z" />
					</g>
					<g>
						<path class="st6" d="M194.1,196c0,0-4.7,10.6-19.9-2.5C183.8,189.2,192.3,190,194.1,196z" />
					</g>
					<g>
						<path class="st6" d="M195.7,196.8c0,0-11.3-2.4-1.8-20C200.2,185.3,201.2,193.7,195.7,196.8z" />
					</g>
					<g>
						<path class="st6" d="M203.3,209.6c0,0-6,9.9-19.5-4.9C193.9,201.5,202.2,203.4,203.3,209.6z" />
					</g>
					<g>
						<path class="st6" d="M203.5,209.5c0,0-9.8-6.2,5.2-19.4C211.7,200.3,209.7,208.5,203.5,209.5z" />
					</g>
					<g>
						<path class="st6" d="M208,224.8c0,0-9.4,6.8-16.1-12.1C202.5,213.8,209.4,218.7,208,224.8z" />
					</g>
					<g>
						<path class="st6" d="M208.2,224.8c0,0-6.6-9.5,12.4-15.8C219.4,219.5,214.3,226.3,208.2,224.8z" />
					</g>
					<g>
						<path class="st6"
							d="M209.4,238.6c0,0-10.2,5.5-14.3-14.1C205.4,226.9,211.6,232.7,209.4,238.6z" />
					</g>
					<g>
						<path class="st6" d="M209.6,238.6c0,0-5.3-10.3,14.4-14C221.3,234.9,215.4,240.9,209.6,238.6z" />
					</g>
					<g>
						<path class="st6" d="M207.3,253.1c0,0-9.6,2.5-9-14.7C206.4,242.6,210.3,248.7,207.3,253.1z" />
					</g>
					<g>
						<path class="st6" d="M207.5,253.1c0,0-2.3-9.7,14.9-8.7C218,252.4,211.8,256.2,207.5,253.1z" />
					</g>
				</g>
			</g>
			<g>
				<g>
					<g>
						<path class="st39" d="M223.5,494.2c6.8-25,18.6-78,6.8-107.6c-15.9-39.8-48.6-35.6-73.6-42.2c-24.9-6.6-42.7-27.6-42.7-27.6
						c4.5,34,30.7,76,57.5,100.3c23.7,21.6,36.6,42.3,45,77.1H223.5z" />
					</g>
				</g>
				<g>
					<g>
						<g>
							<path class="st5" d="M218.7,494.2h1.8c1.6-39.6-8.7-85-43.3-110c-41.5-30-57-57.4-57.2-57.7c-0.2-0.4-0.8-0.6-1.3-0.4
							c-0.4,0.2-0.6,0.8-0.4,1.3c0.2,0.3,15.9,28,57.7,58.3C210.2,410.3,220.3,455.1,218.7,494.2z" />
						</g>
					</g>
					<g>
						<g>
							<path class="st5" d="M131.2,361.3c-0.3,0-0.5-0.2-0.5-0.5c0-0.3,0.2-0.5,0.5-0.5l15.7-0.3l0-16.2c0-0.3,0.2-0.5,0.5-0.5h0
							c0.3,0,0.5,0.2,0.5,0.5l0,17.1L131.2,361.3C131.2,361.3,131.2,361.3,131.2,361.3z" />
						</g>
					</g>
					<g>
						<g>
							<path class="st5"
								d="M146.5,383.9c-0.6,0-0.6-0.1-0.7-0.2l0.9-0.3l-0.4,0.2l0-0.5c0.7,0,17.7-1.6,24.8-2.3l-3.7-31.1
							c0-0.3,0.2-0.5,0.4-0.5c0.3,0,0.5,0.2,0.5,0.4l3.8,32.1l-0.5,0c0,0-6.3,0.6-12.7,1.2C150.5,383.6,147.6,383.9,146.5,383.9z" />
						</g>
					</g>
					<g>
						<g>
							<path class="st5" d="M168.7,407.2c-0.2,0-0.4-0.2-0.5-0.4c0-0.3,0.1-0.5,0.4-0.5l26-3.8l-5.6-47.3c0-0.3,0.2-0.5,0.4-0.5
							c0.3,0,0.5,0.2,0.5,0.4l5.7,48.2L168.7,407.2C168.7,407.2,168.7,407.2,168.7,407.2z" />
						</g>
					</g>
					<g>
						<g>
							<path class="st5" d="M208.7,426l-25-1.8c-0.3,0-0.4-0.2-0.4-0.5c0-0.3,0.2-0.4,0.5-0.4L208,425l12-47.7
							c0.1-0.2,0.3-0.4,0.6-0.3c0.2,0.1,0.4,0.3,0.3,0.6L208.7,426z" />
						</g>
					</g>
					<g>
						<g>
							<path class="st5" d="M216.4,451l-20.4-7.9c-0.2-0.1-0.4-0.4-0.3-0.6c0.1-0.2,0.4-0.4,0.6-0.3l19.6,7.6l15.1-30.3
							c0.1-0.2,0.4-0.3,0.6-0.2c0.2,0.1,0.3,0.4,0.2,0.6L216.4,451z" />
						</g>
					</g>
					<g>
						<g>
							<path class="st5" d="M219,469.1l-10.3-6.2c-0.2-0.1-0.3-0.4-0.2-0.6c0.1-0.2,0.4-0.3,0.6-0.2l9.6,5.8l10.2-14.4
							c0.1-0.2,0.4-0.3,0.6-0.1c0.2,0.1,0.3,0.4,0.1,0.6L219,469.1z" />
						</g>
					</g>
				</g>
			</g>
			<g>
				<g>
					<path class="st4" d="M211.7,366.2c0,13.5,14.5,48.8,24.9,48.8c10.4,0,12.9-35.4,12.9-48.8c0-13.5-8.5-24.4-18.9-24.4
					S211.7,352.7,211.7,366.2z" />
				</g>
				<g>
					<path class="st4" d="M210,380.6c0,0-79.6-98.2,40.4-175.5C228.3,295.1,202.3,324.3,210,380.6z" />
				</g>
				<g>
					<g>
						<path class="st5" d="M210,381.5c-0.3,0-0.6-0.2-0.8-0.5c-0.1-0.2-10.9-20.3-12.1-50.9c-1.1-28.2,6-71.5,45.8-117.2
						c0.3-0.4,0.9-0.4,1.2-0.1c0.4,0.3,0.4,0.9,0.1,1.2c-39.4,45.3-46.4,88-45.4,115.9c1.1,30.2,11.7,50,11.8,50.2
						c0.2,0.4,0.1,1-0.4,1.2C210.3,381.4,210.2,381.5,210,381.5z" />
					</g>
					<g>
						<path class="st5" d="M222.9,241.5l0-13.8c0-0.2,0.2-0.4,0.4-0.4c0,0,0,0,0,0c0.2,0,0.4,0.2,0.4,0.4l0,12.5l17-7.5
						c0.2-0.1,0.5,0,0.6,0.2c0.1,0.2,0,0.5-0.2,0.6L222.9,241.5z" />
					</g>
					<g>
						<path class="st5" d="M210.6,264.8l-2.6-20.2c0-0.2,0.1-0.5,0.4-0.5c0.2,0,0.5,0.1,0.5,0.4l2.4,19.1l24-8.4
						c0.2-0.1,0.5,0,0.6,0.3c0.1,0.2,0,0.5-0.3,0.6L210.6,264.8z" />
					</g>
					<g>
						<path class="st5" d="M202.4,288.8l-7.9-21c-0.1-0.2,0-0.5,0.3-0.6c0.2-0.1,0.5,0,0.6,0.3l7.6,20.2l22.6-7.2
						c0.2-0.1,0.5,0.1,0.6,0.3c0.1,0.2-0.1,0.5-0.3,0.6L202.4,288.8z" />
					</g>
					<g>
						<path class="st5" d="M198.4,312.2L186.1,295c-0.1-0.2-0.1-0.5,0.1-0.6c0.2-0.1,0.5-0.1,0.6,0.1l11.9,16.7l17.8-6.4
						c0.2-0.1,0.5,0,0.6,0.3c0.1,0.2,0,0.5-0.3,0.6L198.4,312.2z" />
					</g>
					<g>
						<path class="st5" d="M198.1,333.5l-12-13.8c-0.2-0.2-0.1-0.5,0-0.6c0.2-0.2,0.5-0.1,0.6,0l11.5,13.2l10.7-6.5
						c0.2-0.1,0.5-0.1,0.6,0.2c0.1,0.2,0.1,0.5-0.1,0.6L198.1,333.5z" />
					</g>
					<g>
						<path class="st5" d="M200.9,353.8l-9.3-10.3c-0.2-0.2-0.1-0.5,0-0.6c0.2-0.2,0.5-0.1,0.6,0l8.7,9.6l6.9-7.5
						c0.2-0.2,0.4-0.2,0.6,0c0.2,0.2,0.2,0.4,0,0.6L200.9,353.8z" />
					</g>
				</g>
			</g>
			<g>
				<path class="st6" d="M364.7,245c3.2,0,3.2-5,0-5C361.5,240,361.5,245,364.7,245L364.7,245z" />
			</g>
			<g>
				<path class="st6" d="M390.7,162.4c3.2,0,3.2-5,0-5C387.5,157.4,387.5,162.4,390.7,162.4L390.7,162.4z" />
			</g>
			<g>
				<path class="st6" d="M245.4,128.4c3.2,0,3.2-5,0-5C242.2,123.4,242.2,128.4,245.4,128.4L245.4,128.4z" />
			</g>
			<g>
				<path class="st6" d="M235.4,176.4c3.2,0,3.2-5,0-5C232.2,171.4,232.2,176.4,235.4,176.4L235.4,176.4z" />
			</g>
			<g>
				<path class="st6" d="M134.4,175.7c3.2,0,3.2-5,0-5C131.2,170.7,131.2,175.7,134.4,175.7L134.4,175.7z" />
			</g>
			<g>
				<path class="st6" d="M93.4,283.7c3.2,0,3.2-5,0-5C90.2,278.7,90.2,283.7,93.4,283.7L93.4,283.7z" />
			</g>
			<g>
				<path class="st6" d="M105.4,356.7c3.2,0,3.2-5,0-5C102.2,351.7,102.2,356.7,105.4,356.7L105.4,356.7z" />
			</g>
			<g>
				<path class="st6" d="M88.4,434.7c3.2,0,3.2-5,0-5C85.2,429.7,85.2,434.7,88.4,434.7L88.4,434.7z" />
			</g>
			<g>
				<path class="st6" d="M420.3,138.7c3.2,0,3.2-5,0-5C417,133.7,417,138.7,420.3,138.7L420.3,138.7z" />
			</g>
			<g>
				<path class="st6" d="M414.3,230.7c3.2,0,3.2-5,0-5C411,225.7,411,230.7,414.3,230.7L414.3,230.7z" />
			</g>
			<g>
				<path class="st6" d="M476.3,126.7c3.2,0,3.2-5,0-5C473,121.7,473,126.7,476.3,126.7L476.3,126.7z" />
			</g>
			<g>
				<path class="st6" d="M511.3,178.7c3.2,0,3.2-5,0-5C508,173.7,508,178.7,511.3,178.7L511.3,178.7z" />
			</g>
			<g>
				<path class="st6" d="M565.3,160.7c3.2,0,3.2-5,0-5C562,155.7,562,160.7,565.3,160.7L565.3,160.7z" />
			</g>
			<g>
				<path class="st6" d="M623.3,217.7c3.2,0,3.2-5,0-5C620,212.7,620,217.7,623.3,217.7L623.3,217.7z" />
			</g>
			<g>
				<path class="st6" d="M629.3,273.7c3.2,0,3.2-5,0-5C626,268.7,626,273.7,629.3,273.7L629.3,273.7z" />
			</g>
			<g>
				<path class="st6" d="M648.3,369.7c3.2,0,3.2-5,0-5C645,364.7,645,369.7,648.3,369.7L648.3,369.7z" />
			</g>
			<g>
				<path class="st6" d="M653.3,440.7c3.2,0,3.2-5,0-5C650,435.7,650,440.7,653.3,440.7L653.3,440.7z" />
			</g>
			<g>
				<path class="st6" d="M357.4,199.2c6.4,0,6.4-10,0-10C350.9,189.2,350.9,199.2,357.4,199.2L357.4,199.2z" />
			</g>
			<g>
				<path class="st6" d="M416.3,186.2c6.4,0,6.4-10,0-10C409.8,176.2,409.8,186.2,416.3,186.2L416.3,186.2z" />
			</g>
			<g>
				<path class="st6" d="M196.4,153.2c6.4,0,6.4-10,0-10C189.9,143.2,189.9,153.2,196.4,153.2L196.4,153.2z" />
			</g>
			<g>
				<path class="st6" d="M612.3,156.2c6.4,0,6.4-10,0-10C605.8,146.2,605.8,156.2,612.3,156.2L612.3,156.2z" />
			</g>
			<g>
				<path class="st6" d="M110.4,238.2c6.4,0,6.4-10,0-10C103.9,228.2,103.9,238.2,110.4,238.2L110.4,238.2z" />
			</g>
			<g>
				<path class="st6" d="M651.3,313.2c6.4,0,6.4-10,0-10C644.8,303.2,644.8,313.2,651.3,313.2L651.3,313.2z" />
			</g>
			<g>
				<path class="st6" d="M87.4,397.2c6.4,0,6.4-10,0-10C80.9,387.2,80.9,397.2,87.4,397.2L87.4,397.2z" />
			</g>
			<g>
				<path class="st6" d="M347.4,144.2c6.4,0,6.4-10,0-10C340.9,134.2,340.9,144.2,347.4,144.2L347.4,144.2z" />
			</g>
			<g>
				<path class="st6" d="M525.3,140.2c6.4,0,6.4-10,0-10C518.8,130.2,518.8,140.2,525.3,140.2L525.3,140.2z" />
			</g>
			<g>
				<path class="st6" d="M397.4,226.7c3.2,0,3.2-5,0-5C394.2,221.7,394.2,226.7,397.4,226.7L397.4,226.7z" />
			</g>
			<g>
				<path class="st6" d="M259.4,233.7c3.2,0,3.2-5,0-5C256.2,228.7,256.2,233.7,259.4,233.7L259.4,233.7z" />
			</g>
			<g>
				<path class="st6" d="M464.3,133.7c3.2,0,3.2-5,0-5C461,128.7,461,133.7,464.3,133.7L464.3,133.7z" />
			</g>
			<g>
				<path class="st6" d="M299.4,129.7c3.2,0,3.2-5,0-5C296.2,124.7,296.2,129.7,299.4,129.7L299.4,129.7z" />
			</g>
			<g>
				<path class="st6" d="M658.3,407.7c3.2,0,3.2-5,0-5C655,402.7,655,407.7,658.3,407.7L658.3,407.7z" />
			</g>
			<g>
				<path class="st6" d="M87.4,326.7c3.2,0,3.2-5,0-5C84.2,321.7,84.2,326.7,87.4,326.7L87.4,326.7z" />
			</g>
			<g>
				<path class="st6" d="M126.4,285.7c3.2,0,3.2-5,0-5C123.2,280.7,123.2,285.7,126.4,285.7L126.4,285.7z" />
			</g>
			<g>
				<path class="st6" d="M582.3,204.7c3.2,0,3.2-5,0-5C579,199.7,579,204.7,582.3,204.7L582.3,204.7z" />
			</g>
			<g>
				<path class="st6" d="M104.4,174.7c3.2,0,3.2-5,0-5C101.2,169.7,101.2,174.7,104.4,174.7L104.4,174.7z" />
			</g>
			<g>
				<path class="st6" d="M149.4,139.7c3.2,0,3.2-5,0-5C146.2,134.7,146.2,139.7,149.4,139.7L149.4,139.7z" />
			</g>
			<g>
				<path class="st40" d="M469.5,393.9c0,0,0,0-0.1,0C469.5,393.9,469.5,393.9,469.5,393.9L469.5,393.9z" />
			</g>
		</g>
		<g>
			<path class="st4" d="M301.3,54.6l-7.8,34h-13.2l-3.9-19.3l-3.9,19.3h-13.2l-7.8-34h11.5l3.1,21.4l4.6-21.4h11.6l4.6,21.4l3.1-21.4
			H301.3z" />
			<path class="st4" d="M315.8,63.1v4.2h10.6v8h-10.6v4.8h12v8.5h-22.7v-34h22.7v8.5H315.8z" />
			<path class="st4" d="M342.5,80.5h10.3v8.1h-20.9v-34h10.7V80.5z" />
			<path class="st4" d="M357.2,62.6c1.4-2.6,3.3-4.7,5.8-6.1c2.5-1.5,5.5-2.2,8.9-2.2c2.9,0,5.6,0.6,7.9,1.7s4.2,2.7,5.7,4.7
			s2.4,4.4,2.9,7.1h-11.2c-0.5-1.1-1.2-2-2.2-2.6c-0.9-0.6-2-0.9-3.2-0.9c-1.8,0-3.2,0.7-4.2,2c-1,1.3-1.6,3.2-1.6,5.4
			c0,2.3,0.5,4.1,1.6,5.4c1,1.3,2.5,2,4.2,2c1.2,0,2.3-0.3,3.2-0.9c0.9-0.6,1.7-1.5,2.2-2.6h11.2c-0.5,2.7-1.4,5-2.9,7.1
			c-1.5,2-3.3,3.6-5.7,4.7s-5,1.7-7.9,1.7c-3.4,0-6.4-0.7-8.9-2.2c-2.5-1.5-4.5-3.5-5.8-6.1c-1.4-2.6-2-5.6-2-9
			S355.9,65.2,357.2,62.6z" />
			<path class="st4" d="M400,86.7c-2.7-1.5-4.8-3.6-6.4-6.2c-1.6-2.7-2.4-5.6-2.4-9c0-3.3,0.8-6.3,2.4-9c1.6-2.7,3.7-4.7,6.4-6.2
			c2.7-1.5,5.6-2.2,8.8-2.2c3.2,0,6.1,0.7,8.8,2.2c2.7,1.5,4.8,3.6,6.3,6.2c1.6,2.7,2.3,5.6,2.3,9c0,3.3-0.8,6.3-2.3,9
			c-1.6,2.7-3.7,4.7-6.3,6.2c-2.7,1.5-5.6,2.3-8.8,2.3C405.6,88.9,402.7,88.2,400,86.7z M413.7,76.9c1.2-1.4,1.7-3.2,1.7-5.5
			c0-2.3-0.6-4.2-1.7-5.5c-1.2-1.4-2.8-2-4.9-2c-2.1,0-3.8,0.7-4.9,2c-1.2,1.4-1.7,3.2-1.7,5.5c0,2.3,0.6,4.1,1.7,5.5
			c1.2,1.4,2.8,2,4.9,2C411,79,412.6,78.3,413.7,76.9z" />
			<path class="st4"
				d="M471,54.6v34h-10.6V71.6l-5.2,16.9H446l-5.2-16.9v16.9h-10.7v-34h13.1l7.5,20.4l7.3-20.4H471z" />
			<path class="st4" d="M486.4,63.1v4.2H497v8h-10.6v4.8h12v8.5h-22.7v-34h22.7v8.5H486.4z" />
		</g>
	</g>
	<g id="TEXT">
	</g>
</svg>