<?xml version="1.0" encoding="utf-8"?>
<!-- Generator: Adobe Illustrator 27.3.1, SVG Export Plug-In . SVG Version: 6.00 Build 0)  -->
<svg version="1.1" id="Layer_1" xmlns="http://www.w3.org/2000/svg" xmlns:xlink="http://www.w3.org/1999/xlink" x="0px"
	y="0px" viewBox="0 0 1000 1000" style="enable-background:new 0 0 1000 1000;" xml:space="preserve">
	<style type="text/css">
		.st0 {
			fill: #22C55E;
		}

		.st1 {
			fill: #FFFFFF;
		}
	</style>
	<path class="st0" d="M799.4,1000H200.6C89.8,1000,0,910.2,0,799.4V200.6C0,89.8,89.8,0,200.6,0h598.7C910.2,0,1000,89.8,1000,200.6
	v598.7C1000,910.2,910.2,1000,799.4,1000z" />
	<image style="display:none;overflow:visible;" width="496" height="496" xlink:href="FAC6871E.png"
		transform="matrix(2.0161 0 0 2.0161 0 0)">
	</image>
	<path class="st1" d="M811.5,502.8c23.1-37.1,34.3-74.1,34.3-112.9c0-112.7-91.7-204.4-204.4-204.4c-33.3,0-60.7,5.2-86.4,16.4
	c-18.7,8.2-36.7,19.6-55.1,35.2c-18.5-15.6-36.4-27-55.1-35.2c-25.6-11.2-53.1-16.4-86.4-16.4c-112.7,0-204.4,91.7-204.4,204.4
	c0,83.7,52.4,145.7,103.7,195.4l219.9,219.9c6.1,6.1,14.2,9.2,22.2,9.2c8,0,16.1-3.1,22.2-9.2l220-220
	c18.7-18.3,41.7-42.1,60.8-69.5c1.1-1.4,2.1-2.8,2.9-4.3C807.9,508.6,809.7,505.7,811.5,502.8z M641.5,248.4
	c78,0,141.5,63.5,141.5,141.5c0,20-4.7,38.7-12.5,56.4l-63.9-57.4c-22.1-20.1-50.8-31.1-80.7-31.1c-29.9,0-58.6,11.1-80.7,31.2
	c0,0-0.1,0.1-0.1,0.1l-64.9,59.6c-14.8,13.2-37.2,12.7-51-1.1c0,0-0.1-0.1-0.1-0.1l-0.2-0.2c-14.3-14.4-14.2-37.7,0.2-52
	c0,0,0.1-0.1,0.1-0.1l93.1-93.1c0,0,0,0,0,0C561.9,262.5,593.1,248.4,641.5,248.4z M500,738.5L302.1,540.7c-0.1-0.1-0.3-0.2-0.4-0.4
	c-44-42.5-84.7-90.2-84.7-150.3c0-78,63.5-141.5,141.5-141.5c38.6,0,66.2,8.9,95.9,32.6l-69.7,69.7c-39,38.7-39.2,101.9-0.4,141
	l0.4,0.4c37.5,37.5,97.9,38.9,137.6,3.4c0.1-0.1,0.2-0.2,0.3-0.2l65-59.7c21.9-19.8,55-19.8,76.9,0.1c0,0,0.1,0.1,0.1,0.1l71.5,64.2
	c-11.7,14.1-24.6,27.5-37.9,40.5c-0.1,0.1-0.2,0.2-0.2,0.2l-9.2,9.2L648,509.2c-12.3-12.3-32.2-12.3-44.5,0
	c-12.3,12.3-12.3,32.2,0,44.5l40.7,40.7l-49.9,49.9l-40.7-40.7c-12.3-12.3-32.2-12.3-44.5,0c-12.3,12.3-12.3,32.2,0,44.5l40.7,40.7
	L500,738.5z" />
</svg>